<?xml version="1.0" encoding="UTF-8"?>
<svg version="1.1" xmlns="http://www.w3.org/2000/svg" width="500" height="500">
<path d="M0 0 C2.76145971 1.81852225 3.69213124 2.90977633 4.58374023 6.06713867 C5.16108637 10.13497395 5.12259633 14.13509068 5.09765625 18.23828125 C5.0962413 19.11904831 5.09482635 19.99981537 5.09336853 20.90727234 C5.08778937 23.70905003 5.07524071 26.51074662 5.0625 29.3125 C5.05748231 31.21679572 5.05291987 33.12109269 5.04882812 35.02539062 C5.03782677 39.68362481 5.02057649 44.34179867 5 49 C5.73387939 48.58355225 6.46775879 48.16710449 7.22387695 47.73803711 C8.19800537 47.1941333 9.17213379 46.65022949 10.17578125 46.08984375 C11.61691284 45.27954712 11.61691284 45.27954712 13.0871582 44.45288086 C19.88100976 41.06421179 26.64585809 40.34706906 34 42 C34.76957031 42.15210938 35.53914063 42.30421875 36.33203125 42.4609375 C46.26533189 44.86995844 55.31700538 51.49294056 61 60 C68.61544448 72.76331477 70.65895621 88.93661112 67.45068359 103.4921875 C65.52283243 109.98485138 62.85659071 116.41058498 59 122 C58.34 122 57.68 122 57 122 C56.7525 122.61875 56.505 123.2375 56.25 123.875 C54.79371361 126.35068687 53.62187494 126.95125002 51 128 C51 128.66 51 129.32 51 130 C50.34 130 49.68 130 49 130 C49 130.66 49 131.32 49 132 C47.08588443 132.98414433 45.1686033 133.96213349 43.25 134.9375 C42.18265625 135.48277344 41.1153125 136.02804687 40.015625 136.58984375 C31.7234716 140.46739217 21.79492262 141.28661305 13.11474609 138.32861328 C9.6713801 137.02934897 6.29235129 135.64617564 3 134 C3 133.34 3 132.68 3 132 C2.01 132 1.02 132 0 132 C-0.33 132.99 -0.66 133.98 -1 135 C-5.4331569 136.99458928 -9.3695707 137.24430303 -14.1875 137.1875 C-15.39792969 137.18105469 -16.60835937 137.17460937 -17.85546875 137.16796875 C-21 137 -21 137 -24 136 C-24 135.34 -24 134.68 -24 134 C-24.66 134 -25.32 134 -26 134 C-26.89815704 131.30552888 -27.13143344 129.73208035 -27.15148926 126.96588135 C-27.15983292 126.14728638 -27.16817657 125.32869141 -27.17677307 124.48529053 C-27.18095749 123.59070129 -27.18514191 122.69611206 -27.18945312 121.77441406 C-27.19774643 120.82937012 -27.20603973 119.88432617 -27.21458435 118.91064453 C-27.23199209 116.85630218 -27.24715693 114.80193989 -27.26036072 112.74756622 C-27.2813893 109.49407281 -27.30841476 106.24067855 -27.33703613 102.98724365 C-27.39675704 96.07486732 -27.44886324 89.16244444 -27.5 82.25 C-27.55928654 74.25367529 -27.62169607 66.25739891 -27.69187927 58.2611618 C-27.7183822 55.06004895 -27.73924386 51.8589311 -27.7598877 48.65777588 C-27.77650023 46.68623628 -27.7933729 44.71469885 -27.81054688 42.74316406 C-27.81473129 41.85667175 -27.81891571 40.97017944 -27.82322693 40.05682373 C-27.90015976 32.40495568 -28.33802531 26.40950794 -32.5625 19.8125 C-36 14.42454728 -36 14.42454728 -36 10 C-35.34 10 -34.68 10 -34 10 C-33.67 9.01 -33.34 8.02 -33 7 C-29.9964154 5.82911109 -27.08894369 4.89461211 -24 4 C-22.89140625 3.64421875 -21.7828125 3.2884375 -20.640625 2.921875 C-6.9030334 -1.33737829 -6.9030334 -1.33737829 0 0 Z M8 73 C4.30635959 77.89157784 2.87424984 81.35985334 2.8671875 87.4375 C2.86589844 88.49710938 2.86460938 89.55671875 2.86328125 90.6484375 C2.86714844 91.75445312 2.87101562 92.86046875 2.875 94 C2.87113281 95.10601562 2.86726563 96.21203125 2.86328125 97.3515625 C2.86457031 98.41117188 2.86585937 99.47078125 2.8671875 100.5625 C2.86831543 101.53316406 2.86944336 102.50382812 2.87060547 103.50390625 C2.89555248 106.13114254 2.89555248 106.13114254 4 109 C4.66 109 5.32 109 6 109 C6 109.66 6 110.32 6 111 C12.1595181 114.21366162 18.20857309 115.4735723 25.01953125 113.37890625 C31.01817709 110.43839358 33.54595552 105.04656938 36.3125 99.25 C38.19906653 90.33168548 37.43751414 82.9483185 33 75 C32.67 74.34 32.34 73.68 32 73 C31.34 73 30.68 73 30 73 C30 72.34 30 71.68 30 71 C23.17742601 66.91951317 13.74786454 67.53952869 8 73 Z " fill="#093E2B" transform="translate(93,167)"/>
<path d="M0 0 C1.11246094 -0.00257813 2.22492188 -0.00515625 3.37109375 -0.0078125 C4.53769531 -0.00007812 5.70429688 0.00765625 6.90625 0.015625 C8.07285156 0.00789062 9.23945313 0.00015625 10.44140625 -0.0078125 C11.55386719 -0.00523437 12.66632813 -0.00265625 13.8125 0 C14.83666016 0.00225586 15.86082031 0.00451172 16.91601562 0.00683594 C19.40625 0.265625 19.40625 0.265625 21.40625 2.265625 C21.66453552 4.58500671 21.66453552 4.58500671 21.67749023 7.5222168 C21.68767685 8.620634 21.69786346 9.71905121 21.70835876 10.85075378 C21.71049881 12.04340347 21.71263885 13.23605316 21.71484375 14.46484375 C21.74001266 16.97851785 21.76541055 19.49218968 21.79101562 22.00585938 C21.81972473 25.97777673 21.84373356 29.94965421 21.86254883 33.92163086 C21.88423831 37.74875122 21.92369371 41.57539034 21.96484375 45.40234375 C21.96495956 46.58487228 21.96507538 47.76740082 21.9651947 48.98576355 C22.03888924 55.14141322 22.29296247 59.88040157 25.40625 65.265625 C27.27764274 66.32072559 27.27764274 66.32072559 29.40625 66.265625 C30.12683594 66.34425781 30.84742188 66.42289062 31.58984375 66.50390625 C35.41775251 66.62995524 37.83338819 66.56450942 41.28125 64.765625 C46.86618949 58.19510795 46.82597072 50.89834073 46.77734375 42.6875 C46.79471103 40.45312335 46.81229555 38.21874838 46.83007812 35.984375 C46.8401839 32.4862983 46.84373677 28.98832514 46.84204102 25.49023438 C46.84560099 22.09734418 46.87288854 18.70524912 46.90234375 15.3125 C46.89416122 14.26455261 46.8859787 13.21660522 46.87754822 12.13690186 C46.9512526 4.97681552 46.9512526 4.97681552 49.10766602 1.60620117 C51.85125582 0.00608948 53.51941233 -0.23686949 56.6875 -0.23046875 C57.69425781 -0.23111328 58.70101562 -0.23175781 59.73828125 -0.23242188 C61.30642578 -0.20245117 61.30642578 -0.20245117 62.90625 -0.171875 C63.95167969 -0.17896484 64.99710937 -0.18605469 66.07421875 -0.19335938 C75.02042809 -0.11890309 75.02042809 -0.11890309 78.40625 3.265625 C78.91850281 6.13822937 78.91850281 6.13822937 78.9362793 9.6862793 C78.94501068 10.33401306 78.95374207 10.98174683 78.96273804 11.64910889 C78.98717416 13.79630043 78.98369534 15.94253032 78.98046875 18.08984375 C78.99292746 19.59423947 79.00726543 21.09862069 79.02339172 22.60298157 C79.0615018 26.57694439 79.07660592 30.5506587 79.08618164 34.52478027 C79.10346836 40.07130664 79.15109374 45.61766024 79.19624329 51.16401672 C79.22022036 54.11260521 79.23544341 57.06101589 79.24308777 60.00968933 C79.24944323 61.39407713 79.25653653 62.77846176 79.2644043 64.1628418 C79.26885827 65.1617672 79.26885827 65.1617672 79.27340221 66.18087292 C79.3093261 69.71930887 79.45661037 73.22112367 79.74551392 76.7484436 C79.80390599 77.47967595 79.86229807 78.2109083 79.9224596 78.9642992 C80.09482739 80.99576552 80.29004618 83.02525537 80.48664856 85.05451965 C80.40625 88.265625 80.40625 88.265625 79.05351257 90.17094421 C74.33885002 93.30405159 67.73480556 92.51944255 62.28125 92.578125 C60.92193359 92.62163086 60.92193359 92.62163086 59.53515625 92.66601562 C52.94755811 92.72945176 52.94755811 92.72945176 50.4140625 90.55859375 C49.35227851 88.14282941 48.30274574 85.74822859 47.40625 83.265625 C46.7771875 83.80832031 46.148125 84.35101563 45.5 84.91015625 C36.48180956 92.44795097 28.475578 96.05533519 16.53515625 95.015625 C10.9313918 94.16403529 6.84765172 92.9667931 2.40625 89.265625 C1.1378125 88.21375 1.1378125 88.21375 -0.15625 87.140625 C-5.5228261 80.81081729 -8.66769222 73.51087145 -8.83081055 65.23706055 C-8.85721115 63.99534592 -8.88361176 62.75363129 -8.91081238 61.47428894 C-8.93444541 60.11698103 -8.95765369 58.75966566 -8.98046875 57.40234375 C-9.00613789 56.00852758 -9.03192183 54.61471351 -9.05781555 53.22090149 C-9.1107716 50.29811363 -9.15969082 47.37528819 -9.20629883 44.45239258 C-9.26656472 40.71651618 -9.34082232 36.98106248 -9.41867352 33.24551678 C-9.47643726 30.36563075 -9.52465608 27.4856412 -9.570261 24.60553932 C-9.59358422 23.22884768 -9.62031299 21.85220919 -9.65057945 20.47565269 C-9.69200512 18.54474803 -9.71871994 16.61354496 -9.74487305 14.68237305 C-9.77365791 13.03714912 -9.77365791 13.03714912 -9.80302429 11.35868835 C-9.29944733 3.91584662 -7.70230348 0.01696543 0 0 Z " fill="#084630" transform="translate(215.59375,211.734375)"/>
<path d="M0 0 C2.57758823 2.05659901 3.83456448 3.33445773 4.63769531 6.56542969 C4.73195801 7.97937012 4.73195801 7.97937012 4.828125 9.421875 C4.90546875 10.44667969 4.9828125 11.47148437 5.0625 12.52734375 C5.124375 13.59082031 5.18625 14.65429688 5.25 15.75 C5.32734375 16.82894531 5.4046875 17.90789062 5.484375 19.01953125 C5.67265666 21.67900974 5.84388745 24.33847134 6 27 C7.24136719 26.90460938 8.48273438 26.80921875 9.76171875 26.7109375 C11.4036043 26.59835106 13.0455339 26.48640556 14.6875 26.375 C15.50412109 26.31054688 16.32074219 26.24609375 17.16210938 26.1796875 C21.63146934 25.8901743 24.92589526 25.8260378 29 28 C30.71261819 45.1873468 30.71261819 45.1873468 27 50 C24.11734851 50.96088383 22.32337729 51.11670941 19.33203125 51.09765625 C18.43935547 51.09443359 17.54667969 51.09121094 16.62695312 51.08789062 C15.69818359 51.07951172 14.76941406 51.07113281 13.8125 51.0625 C12.40194336 51.05573242 12.40194336 51.05573242 10.96289062 51.04882812 C8.64186288 51.03704626 6.32096356 51.02059558 4 51 C4.11872128 55.87482574 4.2429993 60.7494672 4.37231445 65.62402344 C4.41549049 67.28056031 4.45717697 68.93713672 4.49731445 70.59375 C4.5554393 72.9818918 4.61900948 75.3698377 4.68359375 77.7578125 C4.70030624 78.49242706 4.71701874 79.22704163 4.73423767 79.98391724 C4.85049443 84.06567134 5.05096055 88.02015713 6 92 C9.77926441 94.44540638 13.60353976 94.31974256 18 94 C19.34136367 93.34964186 20.67532254 92.6837045 22 92 C27.35714286 91.67857143 27.35714286 91.67857143 30 93 C31.79298304 97.15217125 32.20213819 99.6709887 31 104 C27.11800351 111.49042947 21.77865322 117.72358345 13.8125 120.8125 C4.33217191 123.76538908 -2.69115025 123.60764659 -12 120 C-13.485 119.505 -13.485 119.505 -15 119 C-15 118.34 -15 117.68 -15 117 C-15.66 117 -16.32 117 -17 117 C-17 116.34 -17 115.68 -17 115 C-17.66 115 -18.32 115 -19 115 C-19 114.34 -19 113.68 -19 113 C-19.66 113 -20.32 113 -21 113 C-23.93588914 107.6582301 -25.67838551 103.18039461 -26.1875 97.0625 C-26.26009033 96.31033203 -26.33268066 95.55816406 -26.4074707 94.78320312 C-27.02506682 87.86834473 -27.3739121 80.93434713 -27.6875 74 C-27.73608154 72.96238525 -27.78466309 71.92477051 -27.8347168 70.85571289 C-28.07476328 64.47579953 -27.82387605 58.33185078 -27 52 C-27.73822998 52.0191748 -28.47645996 52.03834961 -29.23706055 52.05810547 C-30.08695557 52.08018066 -30.93685059 52.10225586 -31.8125 52.125 C-32.70582031 52.14820313 -33.59914063 52.17140625 -34.51953125 52.1953125 C-37 52 -37 52 -40 50 C-40.37231445 47.89282227 -40.37231445 47.89282227 -40.36328125 45.31640625 C-40.36231445 43.92518555 -40.36231445 43.92518555 -40.36132812 42.50585938 C-40.34521484 41.53455078 -40.32910156 40.56324219 -40.3125 39.5625 C-40.31572266 38.59505859 -40.31894531 37.62761719 -40.32226562 36.63085938 C-40.26707288 29.40060931 -40.26707288 29.40060931 -38 26 C-35.18705814 25.30544646 -32.40431261 24.98791317 -29.53125 24.625 C-26.6576378 24.21751271 -26.6576378 24.21751271 -25 21 C-24.34 21 -23.68 21 -23 21 C-22.87625 19.96875 -22.7525 18.9375 -22.625 17.875 C-21.5666803 11.31341787 -20.3584939 7.21838881 -15 3 C-10.25897126 0.81317863 -5.23752219 -0.85261989 0 0 Z " fill="#0A3F2D" transform="translate(416,184)"/>
<path d="M0 0 C2.95494388 2.27303376 3.55634331 4.74883348 4.05444336 8.38476562 C4.67668435 18.91311038 4.58911985 29.34895849 4.27264404 39.88833618 C4.12731556 44.77277947 4.00866988 49.65789558 3.88671875 54.54296875 C3.86252869 55.49121017 3.83833862 56.4394516 3.81341553 57.41642761 C3.37536067 74.82565892 3.63429745 92.17392822 4.26904297 109.57348633 C4.35834931 112.02241871 4.44213458 114.47156073 4.51953125 116.92089844 C4.58631162 119.02880843 4.66548778 121.13639313 4.76171875 123.24316406 C4.78878906 124.12456055 4.81585938 125.00595703 4.84375 125.9140625 C4.87404297 126.66381348 4.90433594 127.41356445 4.93554688 128.18603516 C4.52796234 130.89493425 3.45138326 132.24434323 1.625 134.25 C-2.95492344 135.87956078 -8.18758142 135.39687463 -13 135.375 C-13.85851562 135.37886719 -14.71703125 135.38273438 -15.6015625 135.38671875 C-16.8390625 135.38478516 -16.8390625 135.38478516 -18.1015625 135.3828125 C-18.85002441 135.38168457 -19.59848633 135.38055664 -20.36962891 135.37939453 C-22.375 135.25 -22.375 135.25 -25.375 134.25 C-27.27935881 131.36559784 -27.62751876 129.03906455 -27.64001465 125.62660217 C-27.64828781 124.70277237 -27.65656097 123.77894257 -27.66508484 122.82711792 C-27.66410294 121.82077301 -27.66312103 120.8144281 -27.66210938 119.77758789 C-27.66894241 118.71214249 -27.67577545 117.64669708 -27.68281555 116.54896545 C-27.69640526 114.23544997 -27.70545744 111.92190442 -27.71052551 109.60835457 C-27.71880619 105.94781625 -27.73930371 102.2875284 -27.76306152 98.62705994 C-27.81131505 90.85557704 -27.84423502 83.08406923 -27.875 75.3125 C-27.91065088 66.31113807 -27.95254903 57.3098985 -28.01094055 48.30865288 C-28.03102379 44.70079309 -28.0393318 41.09302674 -28.04724121 37.48512268 C-28.06021317 35.27401387 -28.07373342 33.06290818 -28.08789062 30.85180664 C-28.08690872 29.84748596 -28.08592682 28.84316528 -28.08491516 27.80841064 C-28.12688585 23.10741194 -28.33407346 19.56555209 -30.375 15.25 C-30.24648769 11.58739904 -29.96262646 9.14421418 -27.9375 6.0625 C-20.35326557 0.6980415 -9.16340929 -2.8937082 0 0 Z " fill="#094732" transform="translate(193.375,168.75)"/>
<path d="M0 0 C3.327022 1.663511 4.31119148 2.83477155 5.625 6.3125 C5.30245963 8.64734973 4.96738118 10.98047713 4.625 13.3125 C4.63289308 17.17616134 4.75087076 21.02548255 4.8828125 24.88671875 C4.61135568 28.49380402 4.27200337 29.88961362 1.625 32.3125 C-2.33608437 32.67259858 -5.56790386 32.26427404 -9.375 31.3125 C-14.8585909 30.89864408 -18.55243906 31.63329948 -23.375 34.3125 C-27.97485659 38.53611502 -30.22487015 42.94105184 -30.61791992 49.1496582 C-30.62432604 50.63752455 -30.61956465 52.12546788 -30.60546875 53.61328125 C-30.60501053 54.40848679 -30.60455231 55.20369232 -30.6040802 56.022995 C-30.60106731 57.70146175 -30.59320992 59.37992595 -30.58081055 61.05834961 C-30.56263512 63.60605978 -30.56030059 66.1534038 -30.56054688 68.70117188 C-30.55562755 70.33854476 -30.54979744 71.97591521 -30.54296875 73.61328125 C-30.54185593 74.36563553 -30.5407431 75.11798981 -30.53959656 75.8931427 C-30.50735911 79.55164813 -30.31306749 83.07870264 -29.80200195 86.70385742 C-29.375 90.3125 -29.375 90.3125 -30.375 92.75 C-34.91653107 96.29807115 -42.37209287 95.57812371 -48 95.6875 C-48.73734375 95.72488281 -49.4746875 95.76226562 -50.234375 95.80078125 C-54.01099693 95.86169451 -56.03630695 95.56607467 -59.08609009 93.28274536 C-61.94762951 89.56941695 -62.05771928 86.76544734 -61.95849609 82.26513672 C-61.96083252 81.46943268 -61.96316895 80.67372864 -61.96557617 79.85391235 C-61.9671867 77.23266235 -61.93320356 74.61318683 -61.8984375 71.9921875 C-61.89164602 70.16806676 -61.88692506 68.34393723 -61.88418579 66.51980591 C-61.87078439 61.72352245 -61.82649715 56.92798093 -61.77661133 52.13195801 C-61.74119036 48.21274113 -61.72812875 44.2935989 -61.71619225 40.37425041 C-61.70141113 35.70518269 -61.67618886 31.03619408 -61.6484375 26.3671875 C-61.64352673 25.47478237 -61.63861595 24.58237724 -61.63355637 23.66292953 C-61.61729426 21.14222336 -61.59389025 18.62169636 -61.56787109 16.10107422 C-61.56361115 15.35295471 -61.5593512 14.60483521 -61.55496216 13.83404541 C-61.51608255 10.72900358 -61.36446473 8.2808942 -60.375 5.3125 C-59.715 5.3125 -59.055 5.3125 -58.375 5.3125 C-58.375 4.6525 -58.375 3.9925 -58.375 3.3125 C-53.13605983 0.69302991 -44.3809199 0.71653614 -38.67578125 1.84765625 C-35.73386748 2.92980198 -33.59801173 4.08948827 -31.375 6.3125 C-30.75 8.9375 -30.75 8.9375 -30.375 11.3125 C-29.9625 10.85359375 -29.55 10.3946875 -29.125 9.921875 C-20.95143285 1.23745991 -11.84914405 -2.41371453 0 0 Z " fill="#0B4732" transform="translate(367.375,208.6875)"/>
<path d="M0 0 C0.33 0 0.66 0 1 0 C1.01458252 0.87213135 1.02916504 1.7442627 1.04418945 2.64282227 C1.10557372 5.90659996 1.17978388 9.16957957 1.26245117 12.43286133 C1.29551994 13.8399778 1.32360704 15.24722116 1.34643555 16.65454102 C1.38031799 18.68820824 1.43264218 20.72073135 1.48828125 22.75390625 C1.51446533 23.97408447 1.54064941 25.1942627 1.56762695 26.45141602 C2.16259102 31.33442151 3.43820203 35.43820203 7 39 C3.25 40.125 3.25 40.125 1 39 C-1.31071564 32.73719489 -1.27852456 26.08251286 -1.1875 19.5 C-1.18685547 18.61441406 -1.18621094 17.72882813 -1.18554688 16.81640625 C-1.14805239 11.14224083 -0.71502246 5.62865677 0 0 Z " fill="#2A493D" transform="translate(236,240)"/>
<path d="M0 0 C0.99 0 1.98 0 3 0 C6.70315315 7.52946641 7.52539903 13.79947544 7.25 22.125 C7.23195312 23.176875 7.21390625 24.22875 7.1953125 25.3125 C7.14870351 27.87599422 7.0833027 30.43748094 7 33 C6.67 33 6.34 33 6 33 C5.67 25.41 5.34 17.82 5 10 C3.68 10.33 2.36 10.66 1 11 C1 10.34 1 9.68 1 9 C0.34 9 -0.32 9 -1 9 C-0.67 6.03 -0.34 3.06 0 0 Z " fill="#446358" transform="translate(154,233)"/>
<path d="M0 0 C1.051875 0.474375 2.10375 0.94875 3.1875 1.4375 C8.93665289 3.63357282 14.90804381 3.73069096 21 4 C21 4.66 21 5.32 21 6 C17.89632503 6.14515677 14.79351973 6.23400853 11.6875 6.3125 C10.36588867 6.3753418 10.36588867 6.3753418 9.01757812 6.43945312 C6.58005772 6.48579382 4.39029743 6.48611344 2 6 C-0.10546875 3.48046875 -0.10546875 3.48046875 -1 1 C-0.67 0.67 -0.34 0.34 0 0 Z " fill="#375A4C" transform="translate(169,298)"/>
<path d="M0 0 C0.4140625 2.29296875 0.4140625 2.29296875 0.625 5.1875 C0.69847656 6.1775 0.77195312 7.1675 0.84765625 8.1875 C1.00709402 11.13096647 1.07965371 14.05281269 1 17 C0.34 17.33 -0.32 17.66 -1 18 C-1.33 12.72 -1.66 7.44 -2 2 C-2.99 2.495 -2.99 2.495 -4 3 C-6.0571802 2.59255295 -8.09831097 2.10151304 -10.125 1.5625 C-11.22070312 1.27503906 -12.31640625 0.98757812 -13.4453125 0.69140625 C-14.28835938 0.46324219 -15.13140625 0.23507813 -16 0 C-16 -0.33 -16 -0.66 -16 -1 C-10.96608857 -2.46145816 -4.75023285 -2.37511642 0 0 Z " fill="#55726A" transform="translate(445,212)"/>
<path d="M0 0 C8.25 0 16.5 0 25 0 C25 0.66 25 1.32 25 2 C23.97845825 2.03758423 23.97845825 2.03758423 22.9362793 2.07592773 C19.85316245 2.19190952 16.77034954 2.31462616 13.6875 2.4375 C12.61564453 2.47681641 11.54378906 2.51613281 10.43945312 2.55664062 C8.89741211 2.61948242 8.89741211 2.61948242 7.32421875 2.68359375 C5.9024231 2.73858032 5.9024231 2.73858032 4.4519043 2.79467773 C1.863829 2.91430187 1.863829 2.91430187 -1 4 C-0.67 2.68 -0.34 1.36 0 0 Z " fill="#2A4E40" transform="translate(210,212)"/>
<path d="M0 0 C0.33 0 0.66 0 1 0 C1.06058594 1.12019531 1.12117187 2.24039063 1.18359375 3.39453125 C1.26801424 4.86719984 1.35266149 6.33985544 1.4375 7.8125 C1.47681641 8.55048828 1.51613281 9.28847656 1.55664062 10.04882812 C1.74381035 13.23071342 1.98720793 15.96162378 3 19 C3.03954234 21.33299825 3.04401732 23.66708189 3 26 C2.01 25.67 1.02 25.34 0 25 C-1.0162256 19.39194023 -0.96017114 14.23502748 -0.5625 8.5625 C-0.51029297 7.73556641 -0.45808594 6.90863281 -0.40429688 6.05664062 C-0.27590237 4.03734522 -0.13884576 2.01860371 0 0 Z " fill="#123F2E" transform="translate(194,208)"/>
<path d="M0 0 C4.78239552 -0.19129582 8.6393353 -0.08122634 13 2 C14.9375 4.1875 14.9375 4.1875 16 7 C15.6875 10.8125 15.6875 10.8125 15 14 C14.67 14 14.34 14 14 14 C13.67 10.7 13.34 7.4 13 4 C8.71 3.67 4.42 3.34 0 3 C0 2.01 0 1.02 0 0 Z " fill="#7C968D" transform="translate(357,208)"/>
<path d="M0 0 C0.66 0.33 1.32 0.66 2 1 C1.0625 3.9375 1.0625 3.9375 -1 7 C-3.98823227 7.90454598 -6.88489209 8.14272407 -10 8 C-10.33 7.67 -10.66 7.34 -11 7 C-11.99 7.33 -12.98 7.66 -14 8 C-13.67 7.01 -13.34 6.02 -13 5 C-11.84371094 4.83564453 -11.84371094 4.83564453 -10.6640625 4.66796875 C-9.66117187 4.50941406 -8.65828125 4.35085937 -7.625 4.1875 C-6.62726563 4.03667969 -5.62953125 3.88585937 -4.6015625 3.73046875 C-1.6712636 3.21227702 -1.6712636 3.21227702 0 0 Z " fill="#416155" transform="translate(391,205)"/>
<path d="M0 0 C2 1 2 1 3.1875 3.75 C4.01105448 7.04421792 3.94405381 8.79021705 3 12 C2.67 12 2.34 12 2 12 C1.67 9.69 1.34 7.38 1 5 C-2.65456815 4.24758891 -6.31733897 3.59950296 -10 3 C-6.68587278 -0.05919435 -4.45155852 -0.38709205 0 0 Z " fill="#4D6359" transform="translate(444,276)"/>
<path d="M0 0 C1.32 0 2.64 0 4 0 C4.5625 1.9375 4.5625 1.9375 5 4 C4.67 4.33 4.34 4.66 4 5 C4.00911495 8.56394504 4.13348277 12.11800644 4.2578125 15.6796875 C4 19 4 19 2.4921875 20.9453125 C1.99976563 21.29335938 1.50734375 21.64140625 1 22 C0.67 21.01 0.34 20.02 0 19 C0.33 18.34 0.66 17.68 1 17 C1.09720427 15.06449136 1.12977914 13.12544208 1.125 11.1875 C1.12886719 9.63095703 1.12886719 9.63095703 1.1328125 8.04296875 C1.01076175 5.24657058 0.63363355 2.72060121 0 0 Z " fill="#4D6D61" transform="translate(128,246)"/>
<path d="M0 0 C1.65 0.33 3.3 0.66 5 1 C4.67 1.66 4.34 2.32 4 3 C3.34 3 2.68 3 2 3 C2 6.3 2 9.6 2 13 C1.01 13.495 1.01 13.495 0 14 C-2.23150482 9.66825536 -1.97917594 6.71784771 -1 2 C-0.67 1.34 -0.34 0.68 0 0 Z " fill="#4B745F" transform="translate(165,175)"/>
<path d="M0 0 C0.66 0.33 1.32 0.66 2 1 C3.45989305 7.85026738 3.45989305 7.85026738 2 11.5 C-0.95006062 13.71254546 -3.42414928 13.26987553 -7 13 C-7 12.67 -7 12.34 -7 12 C-5.02 12 -3.04 12 -1 12 C-0.67 8.04 -0.34 4.08 0 0 Z " fill="#405E53" transform="translate(335,290)"/>
<path d="M0 0 C0.66 0 1.32 0 2 0 C2 0.66 2 1.32 2 2 C3.093125 2.268125 4.18625 2.53625 5.3125 2.8125 C8.61692663 3.87663739 9.94960422 4.34654664 12 7 C4.72727273 7.36363636 4.72727273 7.36363636 1.5 5.75 C0 4 0 4 0 0 Z " fill="#446658" transform="translate(307,297)"/>
<path d="M0 0 C2.62404613 3.93606919 2.36302306 7.42590939 2 12 C0.8125 14 0.8125 14 -1 15 C-3.6875 15.1875 -3.6875 15.1875 -6 15 C-4.68 14.67 -3.36 14.34 -2 14 C-1.40145698 10.85764915 -1 7.95533392 -1 4.75 C-1 2 -1 2 0 0 Z " fill="#618372" transform="translate(294,288)"/>
<path d="M0 0 C0.33 0 0.66 0 1 0 C1 1.65 1 3.3 1 5 C1.66 5.33 2.32 5.66 3 6 C3.75 8.4375 3.75 8.4375 4 11 C3.34 11.66 2.68 12.32 2 13 C-2 6.5 -2 6.5 -2 2 C-1.34 2 -0.68 2 0 2 C0 1.34 0 0.68 0 0 Z " fill="#3D5A4E" transform="translate(59,175)"/>
<path d="M0 0 C0.99 0 1.98 0 3 0 C3.33 1.32 3.66 2.64 4 4 C1.6875 5.5625 1.6875 5.5625 -1 7 C-1.99 6.67 -2.98 6.34 -4 6 C-3.67 5.01 -3.34 4.02 -3 3 C-2.34 3 -1.68 3 -1 3 C-0.67 2.01 -0.34 1.02 0 0 Z " fill="#385D4D" transform="translate(134,297)"/>
<path d="M0 0 C0.66 0.33 1.32 0.66 2 1 C1.8125 3.3125 1.8125 3.3125 1 6 C-3.03448276 9 -3.03448276 9 -6 9 C-6 8.01 -6 7.02 -6 6 C-4.37064759 4.62131719 -2.70250393 3.28725907 -1 2 C-0.67 1.34 -0.34 0.68 0 0 Z " fill="#214B3C" transform="translate(260,272)"/>
<path d="M0 0 C0.99 0 1.98 0 3 0 C1.125 4.75 1.125 4.75 0 7 C-0.66 7 -1.32 7 -2 7 C-2.66 8.32 -3.32 9.64 -4 11 C-4.33 10.01 -4.66 9.02 -5 8 C-4.34 8 -3.68 8 -3 8 C-3 6.02 -3 4.04 -3 2 C-2.34 2 -1.68 2 -1 2 C-0.67 1.34 -0.34 0.68 0 0 Z " fill="#49665C" transform="translate(152,282)"/>
<path d="M0 0 C2.58879561 2.26092704 2.97058713 2.68822359 3.3125 6.3125 C3.01101063 9.87007458 2.29283611 12.68710746 1 16 C-1.26273207 12.44181064 -1.07331744 9.87452049 -0.625 5.75 C-0.51414063 4.67234375 -0.40328125 3.5946875 -0.2890625 2.484375 C-0.19367188 1.66453125 -0.09828125 0.8446875 0 0 Z " fill="#103B2D" transform="translate(194,256)"/>
<path d="M0 0 C0.99 0 1.98 0 3 0 C3.28875 0.78375 3.5775 1.5675 3.875 2.375 C4.84912254 5.09671632 4.84912254 5.09671632 7 7 C3.25 8.125 3.25 8.125 1 7 C0.59270772 4.67843403 0.25561323 2.3431213 0 0 Z " fill="#365A4D" transform="translate(236,272)"/>
<path d="M0 0 C2.94982021 1.14186589 4.88437775 2.67281553 7 5 C3.87709365 4.51421457 1.00419641 4.0013988 -2 3 C-2 2.34 -2 1.68 -2 1 C-1.34 0.67 -0.68 0.34 0 0 Z " fill="#426455" transform="translate(140,215)"/>
<path d="M0 0 C-2.24497221 2.24497221 -2.96027349 2.37003419 -6 2.75 C-7.051875 2.89695313 -7.051875 2.89695313 -8.125 3.046875 C-10 3 -10 3 -12 1 C-7.9472484 0.01751476 -4.16138263 -0.08159574 0 0 Z " fill="#0B3424" transform="translate(324,211)"/>
<path d="M0 0 C1.80411967 2.75924185 2.0127245 3.88972103 1.625 7.25 C1.41875 8.1575 1.2125 9.065 1 10 C0.34 10 -0.32 10 -1 10 C-1.02689216 8.52093108 -1.04634621 7.04172517 -1.0625 5.5625 C-1.07410156 4.73878906 -1.08570312 3.91507813 -1.09765625 3.06640625 C-1 1 -1 1 0 0 Z " fill="#234438" transform="translate(67,202)"/>
<path d="M0 0 C0.66 0 1.32 0 2 0 C1.21302675 3.41021743 0.12880057 6.68885166 -1 10 C-1.33 10 -1.66 10 -2 10 C-2.25 3.375 -2.25 3.375 0 0 Z " fill="#183D30" transform="translate(95,246)"/>
<path d="M0 0 C0.66 0 1.32 0 2 0 C2 0.66 2 1.32 2 2 C1.34 2 0.68 2 0 2 C0 2.66 0 3.32 0 4 C0.99 3.67 1.98 3.34 3 3 C2.34 4.98 1.68 6.96 1 9 C-1 6 -1 6 -2 3 C-1.34 2.01 -0.68 1.02 0 0 Z " fill="#37604F" transform="translate(265,213)"/>
<path d="M0 0 C1.5625 1.8125 1.5625 1.8125 3 4 C2.67 4.99 2.34 5.98 2 7 C1.01 6.67 0.02 6.34 -1 6 C-1.6875 3.9375 -1.6875 3.9375 -2 2 C-1.34 2 -0.68 2 0 2 C0 1.34 0 0.68 0 0 Z " fill="#3F5D52" transform="translate(419,268)"/>
<path d="M0 0 C0.86625 0.7734375 0.86625 0.7734375 1.75 1.5625 C0.09385343 1.94468767 -1.57457024 2.27645102 -3.25 2.5625 C-3.58 2.2325 -3.91 1.9025 -4.25 1.5625 C-5.24 1.8925 -6.23 2.2225 -7.25 2.5625 C-6.92 1.5725 -6.59 0.5825 -6.25 -0.4375 C-3.45214701 -1.78818765 -2.64979562 -1.69292498 0 0 Z " fill="#3B564C" transform="translate(384.25,210.4375)"/>
<path d="M0 0 C0.99 0.33 1.98 0.66 3 1 C2.67 1.99 2.34 2.98 2 4 C0.02 4.33 -1.96 4.66 -4 5 C-3.34 4.01 -2.68 3.02 -2 2 C-1.34 2 -0.68 2 0 2 C0 1.34 0 0.68 0 0 Z " fill="#597167" transform="translate(90,298)"/>
<path d="M0 0 C2 1 2 1 4 4 C2.68 4.99 1.36 5.98 0 7 C-0.38133299 5.0085944 -0.71325582 3.00720923 -1 1 C-0.67 0.67 -0.34 0.34 0 0 Z " fill="#567D6E" transform="translate(259,291)"/>
<path d="M0 0 C2.31 0 4.62 0 7 0 C7.33 0.66 7.66 1.32 8 2 C5.69 2.33 3.38 2.66 1 3 C0.67 2.01 0.34 1.02 0 0 Z " fill="#6E8179" transform="translate(357,208)"/>
<path d="M0 0 C0 1.32 0 2.64 0 4 C-2.31 4 -4.62 4 -7 4 C-3.17391304 0 -3.17391304 0 0 0 Z " fill="#58776B" transform="translate(174,171)"/>
<path d="" fill="#FFFFFF" transform="translate(0,0)"/>
<path d="" fill="#FFFFFF" transform="translate(0,0)"/>
<path d="" fill="#FFFFFF" transform="translate(0,0)"/>
<path d="" fill="#FFFFFF" transform="translate(0,0)"/>
<path d="" fill="#FFFFFF" transform="translate(0,0)"/>
<path d="" fill="#FFFFFF" transform="translate(0,0)"/>
<path d="" fill="#FFFFFF" transform="translate(0,0)"/>
<path d="" fill="#FFFFFF" transform="translate(0,0)"/>
<path d="" fill="#FFFFFF" transform="translate(0,0)"/>
<path d="" fill="#FFFFFF" transform="translate(0,0)"/>
<path d="" fill="#FFFFFF" transform="translate(0,0)"/>
<path d="" fill="#FFFFFF" transform="translate(0,0)"/>
<path d="" fill="#FFFFFF" transform="translate(0,0)"/>
<path d="" fill="#FFFFFF" transform="translate(0,0)"/>
<path d="" fill="#FFFFFF" transform="translate(0,0)"/>
<path d="" fill="#FFFFFF" transform="translate(0,0)"/>
<path d="" fill="#FFFFFF" transform="translate(0,0)"/>
<path d="" fill="#FFFFFF" transform="translate(0,0)"/>
<path d="" fill="#FFFFFF" transform="translate(0,0)"/>
<path d="" fill="#FFFFFF" transform="translate(0,0)"/>
<path d="" fill="#FFFFFF" transform="translate(0,0)"/>
<path d="" fill="#FFFFFF" transform="translate(0,0)"/>
<path d="" fill="#FFFFFF" transform="translate(0,0)"/>
<path d="" fill="#FFFFFF" transform="translate(0,0)"/>
<path d="" fill="#FFFFFF" transform="translate(0,0)"/>
<path d="" fill="#FFFFFF" transform="translate(0,0)"/>
<path d="" fill="#FFFFFF" transform="translate(0,0)"/>
<path d="" fill="#FFFFFF" transform="translate(0,0)"/>
<path d="" fill="#FFFFFF" transform="translate(0,0)"/>
<path d="" fill="#FFFFFF" transform="translate(0,0)"/>
<path d="" fill="#FFFFFF" transform="translate(0,0)"/>
<path d="" fill="#FFFFFF" transform="translate(0,0)"/>
<path d="" fill="#FFFFFF" transform="translate(0,0)"/>
<path d="" fill="#FFFFFF" transform="translate(0,0)"/>
<path d="" fill="#FFFFFF" transform="translate(0,0)"/>
<path d="" fill="#FFFFFF" transform="translate(0,0)"/>
<path d="" fill="#FFFFFF" transform="translate(0,0)"/>
<path d="" fill="#FFFFFF" transform="translate(0,0)"/>
<path d="" fill="#FFFFFF" transform="translate(0,0)"/>
<path d="" fill="#FFFFFF" transform="translate(0,0)"/>
<path d="" fill="#FFFFFF" transform="translate(0,0)"/>
<path d="" fill="#FFFFFF" transform="translate(0,0)"/>
<path d="" fill="#FFFFFF" transform="translate(0,0)"/>
<path d="" fill="#FFFFFF" transform="translate(0,0)"/>
<path d="" fill="#FFFFFF" transform="translate(0,0)"/>
<path d="" fill="#FFFFFF" transform="translate(0,0)"/>
<path d="" fill="#FFFFFF" transform="translate(0,0)"/>
<path d="" fill="#FFFFFF" transform="translate(0,0)"/>
<path d="" fill="#FFFFFF" transform="translate(0,0)"/>
<path d="" fill="#FFFFFF" transform="translate(0,0)"/>
<path d="" fill="#FFFFFF" transform="translate(0,0)"/>
<path d="" fill="#FFFFFF" transform="translate(0,0)"/>
<path d="" fill="#FFFFFF" transform="translate(0,0)"/>
<path d="" fill="#FFFFFF" transform="translate(0,0)"/>
<path d="" fill="#FFFFFF" transform="translate(0,0)"/>
<path d="" fill="#FFFFFF" transform="translate(0,0)"/>
<path d="" fill="#FFFFFF" transform="translate(0,0)"/>
<path d="" fill="#FFFFFF" transform="translate(0,0)"/>
<path d="" fill="#FFFFFF" transform="translate(0,0)"/>
<path d="" fill="#FFFFFF" transform="translate(0,0)"/>
<path d="" fill="#FFFFFF" transform="translate(0,0)"/>
<path d="" fill="#FFFFFF" transform="translate(0,0)"/>
<path d="" fill="#FFFFFF" transform="translate(0,0)"/>
<path d="" fill="#FFFFFF" transform="translate(0,0)"/>
<path d="" fill="#FFFFFF" transform="translate(0,0)"/>
<path d="" fill="#FFFFFF" transform="translate(0,0)"/>
<path d="" fill="#FFFFFF" transform="translate(0,0)"/>
<path d="" fill="#FFFFFF" transform="translate(0,0)"/>
<path d="" fill="#FFFFFF" transform="translate(0,0)"/>
<path d="" fill="#FFFFFF" transform="translate(0,0)"/>
<path d="" fill="#FFFFFF" transform="translate(0,0)"/>
<path d="" fill="#FFFFFF" transform="translate(0,0)"/>
<path d="" fill="#FFFFFF" transform="translate(0,0)"/>
<path d="" fill="#FFFFFF" transform="translate(0,0)"/>
<path d="" fill="#FFFFFF" transform="translate(0,0)"/>
<path d="" fill="#FFFFFF" transform="translate(0,0)"/>
<path d="" fill="#FFFFFF" transform="translate(0,0)"/>
<path d="" fill="#FFFFFF" transform="translate(0,0)"/>
<path d="" fill="#FFFFFF" transform="translate(0,0)"/>
<path d="" fill="#FFFFFF" transform="translate(0,0)"/>
<path d="" fill="#FFFFFF" transform="translate(0,0)"/>
<path d="" fill="#FFFFFF" transform="translate(0,0)"/>
<path d="" fill="#FFFFFF" transform="translate(0,0)"/>
<path d="" fill="#FFFFFF" transform="translate(0,0)"/>
<path d="" fill="#FFFFFF" transform="translate(0,0)"/>
<path d="" fill="#FFFFFF" transform="translate(0,0)"/>
<path d="" fill="#FFFFFF" transform="translate(0,0)"/>
<path d="" fill="#FFFFFF" transform="translate(0,0)"/>
<path d="" fill="#FFFFFF" transform="translate(0,0)"/>
<path d="" fill="#FFFFFF" transform="translate(0,0)"/>
<path d="" fill="#FFFFFF" transform="translate(0,0)"/>
<path d="" fill="#FFFFFF" transform="translate(0,0)"/>
<path d="" fill="#FFFFFF" transform="translate(0,0)"/>
</svg>
