<?xml version="1.0" encoding="UTF-8"?>
<!DOCTYPE svg PUBLIC "-//W3C//DTD SVG 1.1//EN" "http://www.w3.org/Graphics/SVG/1.1/DTD/svg11.dtd">
<svg xmlns="http://www.w3.org/2000/svg" version="1.1" width="531px" height="469px" style="shape-rendering:geometricPrecision; text-rendering:geometricPrecision; image-rendering:optimizeQuality; fill-rule:evenodd; clip-rule:evenodd" xmlns:xlink="http://www.w3.org/1999/xlink">
<g><path style="opacity:0.004" fill="#fefffe" d="M 320.5,10.5 C 321.833,11.1667 321.833,11.1667 320.5,10.5 Z"/></g>
<g><path style="opacity:0.004" fill="#fefffe" d="M 497.5,11.5 C 498.833,12.1667 498.833,12.1667 497.5,11.5 Z"/></g>
<g><path style="opacity:0.004" fill="#fefffe" d="M 482.5,16.5 C 483.833,17.1667 483.833,17.1667 482.5,16.5 Z"/></g>
<g><path style="opacity:1" fill="#136d13" d="M 158.5,29.5 C 156.287,28.3947 154.12,28.3947 152,29.5C 151.063,25.8559 149.563,25.6892 147.5,29C 146.207,35.2421 146.54,41.4088 148.5,47.5C 146.132,43.6114 145.132,39.2781 145.5,34.5C 145.413,30.3607 146.08,26.3607 147.5,22.5C 151.475,24.4991 155.141,26.8324 158.5,29.5 Z"/></g>
<g><path style="opacity:0.004" fill="#fefffe" d="M 95.5,28.5 C 96.8333,29.1667 96.8333,29.1667 95.5,28.5 Z"/></g>
<g><path style="opacity:0.999" fill="#033831" d="M 317.5,25.5 C 318.496,25.4142 319.329,25.7476 320,26.5C 323.265,38.8479 323.265,51.1813 320,63.5C 315.908,74.99 308.074,79.49 296.5,77C 300.21,71.7495 303.544,66.2495 306.5,60.5C 306.154,59.3044 305.654,59.3044 305,60.5C 302.333,64.5 299.667,68.5 297,72.5C 295.887,74.3293 294.387,75.1626 292.5,75C 287.911,70.0335 286.411,64.2002 288,57.5C 290.509,49.6483 294.675,42.815 300.5,37C 305.887,32.6485 311.553,28.8151 317.5,25.5 Z"/></g>
<g><path style="opacity:0.004" fill="#fefffe" d="M 479.5,30.5 C 480.833,31.1667 480.833,31.1667 479.5,30.5 Z"/></g>
<g><path style="opacity:1" fill="#067806" d="M 342.5,72.5 C 341.504,72.5858 340.671,72.2524 340,71.5C 337.873,76.4423 336.206,76.4423 335,71.5C 334.241,69.9371 333.074,68.9371 331.5,68.5C 326.114,56.3673 326.281,44.3673 332,32.5C 335.594,27.451 340.427,25.2844 346.5,26C 343.661,31.5216 342.161,37.3549 342,43.5C 343.864,37.4402 346.53,31.7736 350,26.5C 356.729,31.0452 359.396,37.3786 358,45.5C 355.919,56.3347 350.753,65.3347 342.5,72.5 Z"/></g>
<g><path style="opacity:0.004" fill="#fefffe" d="M 248.5,33.5 C 249.833,34.1667 249.833,34.1667 248.5,33.5 Z"/></g>
<g><path style="opacity:1" fill="#033830" d="M 183.5,26.5 C 192.214,25.6369 198.047,29.6369 201,38.5C 203.963,52.8311 201.296,65.8311 193,77.5C 177.872,66.9202 171.205,52.5869 173,34.5C 174.274,30.8938 176.607,28.2272 180,26.5C 183.47,31.7736 186.136,37.4402 188,43.5C 187.811,37.4407 186.311,31.774 183.5,26.5 Z"/></g>
<g><path style="opacity:0.999" fill="#067706" d="M 210.5,25.5 C 226.208,31.0411 236.708,41.7078 242,57.5C 243.589,64.2002 242.089,70.0335 237.5,75C 235.613,75.1626 234.113,74.3293 233,72.5C 230.333,68.5 227.667,64.5 225,60.5C 224.346,59.3044 223.846,59.3044 223.5,60.5C 226.605,66.5602 229.605,72.5602 232.5,78.5C 221.389,78.885 213.889,73.885 210,63.5C 206.61,50.7603 206.777,38.0937 210.5,25.5 Z"/></g>
<g><path style="opacity:1" fill="#043831" d="M 381.5,22.5 C 382.649,22.7911 383.316,23.6244 383.5,25C 385.611,34.305 384.445,43.1383 380,51.5C 376.95,55.1303 373.117,56.297 368.5,55C 369.853,47.9536 369.186,47.787 366.5,54.5C 360.942,49.6212 360.108,43.9545 364,37.5C 368.504,30.8208 374.337,25.8208 381.5,22.5 Z"/></g>
<g><path style="opacity:1" fill="#037904" d="M 158.5,29.5 C 166.094,34.9613 168.761,41.9613 166.5,50.5C 165.504,50.4142 164.671,50.7476 164,51.5C 162.249,49.5101 161.249,47.1768 161,44.5C 160.617,45.056 160.117,45.3893 159.5,45.5C 159.167,44.1667 158.833,44.1667 158.5,45.5C 158.808,47.924 158.474,50.2573 157.5,52.5C 155.556,51.8108 153.556,51.3108 151.5,51C 151.026,49.2714 150.026,48.1047 148.5,47.5C 146.54,41.4088 146.207,35.2421 147.5,29C 149.563,25.6892 151.063,25.8559 152,29.5C 154.12,28.3947 156.287,28.3947 158.5,29.5 Z"/></g>
<g><path style="opacity:1" fill="#136a15" d="M 166.5,50.5 C 164.148,56.0083 162.314,55.675 161,49.5C 160.505,51.4727 160.338,53.4727 160.5,55.5C 154.451,55.8144 150.451,53.1478 148.5,47.5C 150.026,48.1047 151.026,49.2714 151.5,51C 153.556,51.3108 155.556,51.8108 157.5,52.5C 158.474,50.2573 158.808,47.924 158.5,45.5C 158.833,45.5 159.167,45.5 159.5,45.5C 160.117,45.3893 160.617,45.056 161,44.5C 161.249,47.1768 162.249,49.5101 164,51.5C 164.671,50.7476 165.504,50.4142 166.5,50.5 Z"/></g>
<g><path style="opacity:0.004" fill="#fefffe" d="M 509.5,58.5 C 510.833,59.1667 510.833,59.1667 509.5,58.5 Z"/></g>
<g><path style="opacity:0.992" fill="#043831" d="M 158.5,59.5 C 160.288,59.2148 161.955,59.5481 163.5,60.5C 161.725,63.3128 160.892,66.3128 161,69.5C 166.377,57.7255 170.21,58.5588 172.5,72C 170.757,84.3062 164.591,93.8062 154,100.5C 147.637,88.758 146.97,76.758 152,64.5C 153.965,62.4497 156.132,60.783 158.5,59.5 Z"/></g>
<g><path style="opacity:0.992" fill="#05372f" d="M 205.5,62.5 C 209.723,64.7509 211.723,68.4176 211.5,73.5C 210.596,80.5362 207.429,82.2029 202,78.5C 200.622,72.5298 201.789,67.1965 205.5,62.5 Z"/></g>
<g><path style="opacity:1" fill="#0f7511" d="M 322.5,62.5 C 325.452,63.3589 327.285,65.3589 328,68.5C 328.667,71.8333 328.667,75.1667 328,78.5C 324.877,80.8208 321.877,80.4875 319,77.5C 317.82,71.9034 318.987,66.9034 322.5,62.5 Z"/></g>
<g><path style="opacity:0.004" fill="#fefffe" d="M 146.5,72.5 C 147.833,73.1667 147.833,73.1667 146.5,72.5 Z"/></g>
<g><path style="opacity:1" fill="#146819" d="M 331.5,68.5 C 333.074,68.9371 334.241,69.9371 335,71.5C 336.206,76.4423 337.873,76.4423 340,71.5C 340.671,72.2524 341.504,72.5858 342.5,72.5C 341.001,75.5317 338.668,77.0317 335.5,77C 334.297,74.0954 332.964,71.2621 331.5,68.5 Z"/></g>
<g><path style="opacity:0.004" fill="#fefffe" d="M 41.5,73.5 C 42.8333,74.1667 42.8333,74.1667 41.5,73.5 Z"/></g>
<g><path style="opacity:0.004" fill="#fefffe" d="M 386.5,74.5 C 387.833,75.1667 387.833,75.1667 386.5,74.5 Z"/></g>
<g><path style="opacity:0.999" fill="#033931" d="M 366.5,59.5 C 374.924,59.7544 379.757,64.0877 381,72.5C 382.524,82.4042 380.857,91.7375 376,100.5C 366.918,94.7589 360.918,86.7589 358,76.5C 356.413,70.3943 357.913,65.2277 362.5,61C 363.332,60.3123 363.998,60.479 364.5,61.5C 366.253,64.0048 367.753,66.6714 369,69.5C 368.904,66.033 368.07,62.6997 366.5,59.5 Z"/></g>
<g><path style="opacity:1" fill="#053830" d="M 334.5,92.5 C 333.429,85.8087 335.762,80.642 341.5,77C 345.203,74.646 349.203,73.146 353.5,72.5C 354.406,79.7223 352.906,86.3889 349,92.5C 347.147,94.5924 344.814,95.5924 342,95.5C 339.425,93.9425 336.925,92.9425 334.5,92.5 Z"/></g>
<g><path style="opacity:1" fill="#057a06" d="M 186.5,76.5 C 190.167,78.1667 192.833,80.8333 194.5,84.5C 194.66,86.1992 194.494,87.8659 194,89.5C 192.629,88.9993 191.129,88.9993 189.5,89.5C 189.5,89.8333 189.5,90.1667 189.5,90.5C 189.5,91.8333 189.5,93.1667 189.5,94.5C 186.677,93.7834 184.01,92.7834 181.5,91.5C 180.767,88.3773 179.767,85.3773 178.5,82.5C 178.39,80.626 179.056,79.126 180.5,78C 179.216,76.7025 179.383,75.5358 181,74.5C 182.584,75.8613 184.418,76.528 186.5,76.5 Z"/></g>
<g><path style="opacity:0.999" fill="#033931" d="M 195.5,92.5 C 198.306,86.8698 202.806,83.2031 209,81.5C 210.895,88.9564 211.895,96.6231 212,104.5C 212.95,96.7277 213.616,89.061 214,81.5C 221.091,84.0098 225.091,89.0098 226,96.5C 225.62,113.593 218.62,127.26 205,137.5C 194.799,124.089 191.632,109.089 195.5,92.5 Z"/></g>
<g><path style="opacity:1" fill="#033831" d="M 334.5,92.5 C 338.158,109.049 334.991,124.049 325,137.5C 311.38,127.26 304.38,113.593 304,96.5C 304.909,89.0098 308.909,84.0098 316,81.5C 316.294,89.202 316.96,96.8687 318,104.5C 318.105,96.6231 319.105,88.9564 321,81.5C 326.923,82.8762 331.423,86.5428 334.5,92.5 Z"/></g>
<g><path style="opacity:1" fill="#053a31" d="M 230.5,81.5 C 234.846,81.2778 237.179,83.2778 237.5,87.5C 236.818,93.0165 233.985,97.0165 229,99.5C 225.288,93.0903 225.788,87.0903 230.5,81.5 Z"/></g>
<g><path style="opacity:0.999" fill="#083b33" d="M 296.5,81.5 C 299.642,81.7993 301.809,83.4659 303,86.5C 304.332,101.845 300.999,103.179 293,90.5C 291.666,86.3336 292.833,83.3336 296.5,81.5 Z"/></g>
<g><path style="opacity:1" fill="#146c16" d="M 186.5,76.5 C 184.418,76.528 182.584,75.8613 181,74.5C 179.383,75.5358 179.216,76.7025 180.5,78C 179.056,79.126 178.39,80.626 178.5,82.5C 179.767,85.3773 180.767,88.3773 181.5,91.5C 184.01,92.7834 186.677,93.7834 189.5,94.5C 189.5,93.1667 189.5,91.8333 189.5,90.5C 190.833,90.1667 190.833,89.8333 189.5,89.5C 191.129,88.9993 192.629,88.9993 194,89.5C 194.494,87.8659 194.66,86.1992 194.5,84.5C 195.473,86.9479 195.806,89.6146 195.5,92.5C 185.923,98.3088 179.756,95.3088 177,83.5C 176.501,79.8484 176.335,76.1817 176.5,72.5C 180.297,72.8723 183.63,74.2057 186.5,76.5 Z"/></g>
<g><path style="opacity:1" fill="#057805" d="M 234.5,122.5 C 232.72,123.99 232.054,125.99 232.5,128.5C 231.448,128.649 230.448,128.483 229.5,128C 229.108,125.147 227.774,122.98 225.5,121.5C 225.354,109.953 230.021,100.453 239.5,93C 241.667,91.5 243.833,90 246,88.5C 251.552,99.3262 252.886,110.66 250,122.5C 248.049,128.976 243.716,132.643 237,133.5C 236.667,128.5 236.333,123.5 236,118.5C 235.79,120.058 235.29,121.391 234.5,122.5 Z"/></g>
<g><path style="opacity:0.996" fill="#023931" d="M 169.5,89.5 C 171.716,90.2026 173.549,91.5359 175,93.5C 184.797,105.596 189.964,119.43 190.5,135C 191.443,146.697 186.609,154.864 176,159.5C 175.055,159.095 174.388,158.428 174,157.5C 172.353,152.246 171.02,146.913 170,141.5C 169.5,147.825 169.334,154.158 169.5,160.5C 156.368,157.18 150.368,148.68 151.5,135C 151.289,123.676 154.123,113.176 160,103.5C 163.388,98.9523 166.555,94.2856 169.5,89.5 Z"/></g>
<g><path style="opacity:1" fill="#047903" d="M 369.5,158.5 C 366.657,158.942 363.991,159.942 361.5,161.5C 359.829,159.49 359.162,157.157 359.5,154.5C 359.666,145.827 359.5,137.16 359,128.5C 358.348,140.596 355.848,152.263 351.5,163.5C 348.671,162.253 346.005,160.753 343.5,159C 341.859,157.871 340.859,156.371 340.5,154.5C 339.489,151.468 338.322,148.468 337,145.5C 336.747,137.31 336.581,129.31 336.5,121.5C 340.367,108.596 346.7,97.0961 355.5,87C 356.449,86.3828 357.282,86.5494 358,87.5C 370.317,101.475 377.15,117.809 378.5,136.5C 378.356,143.328 376.522,149.661 373,155.5C 371.961,156.71 370.794,157.71 369.5,158.5 Z"/></g>
<g><path style="opacity:0.004" fill="#fefffe" d="M 185.5,96.5 C 186.833,97.1667 186.833,97.1667 185.5,96.5 Z"/></g>
<g><path style="opacity:0.004" fill="#fefffe" d="M 506.5,96.5 C 507.833,97.1667 507.833,97.1667 506.5,96.5 Z"/></g>
<g><path style="opacity:1" fill="#057904" d="M 292.5,95.5 C 302.244,103.308 306.077,113.308 304,125.5C 302.356,128.311 300.19,130.644 297.5,132.5C 296.144,127.89 294.978,123.223 294,118.5C 293.667,123.5 293.333,128.5 293,133.5C 288.286,132.744 284.786,130.41 282.5,126.5C 279.804,115.513 279.971,104.513 283,93.5C 284.398,92.9491 285.732,92.6158 287,92.5C 288.264,94.607 290.097,95.607 292.5,95.5 Z"/></g>
<g><path style="opacity:1" fill="#136d14" d="M 292.5,95.5 C 290.097,95.607 288.264,94.607 287,92.5C 285.732,92.6158 284.398,92.9491 283,93.5C 279.971,104.513 279.804,115.513 282.5,126.5C 280.554,124.266 279.387,121.599 279,118.5C 277.283,107.884 278.95,97.8844 284,88.5C 287.023,90.6976 289.856,93.031 292.5,95.5 Z"/></g>
<g><path style="opacity:0.004" fill="#fefffe" d="M 59.5,123.5 C 60.8333,124.167 60.8333,124.167 59.5,123.5 Z"/></g>
<g><path style="opacity:0.933" fill="#196b19" d="M 225.5,121.5 C 227.774,122.98 229.108,125.147 229.5,128C 230.448,128.483 231.448,128.649 232.5,128.5C 232.054,125.99 232.72,123.99 234.5,122.5C 234.475,125.96 233.808,129.294 232.5,132.5C 228.083,130.097 225.749,126.43 225.5,121.5 Z"/></g>
<g><path style="opacity:0.004" fill="#fefffe" d="M 92.5,132.5 C 93.8333,133.167 93.8333,133.167 92.5,132.5 Z"/></g>
<g><path style="opacity:1" fill="#126c14" d="M 336.5,121.5 C 336.581,129.31 336.747,137.31 337,145.5C 338.322,148.468 339.489,151.468 340.5,154.5C 337.232,150.889 335.399,146.555 335,141.5C 334.51,134.762 335.01,128.096 336.5,121.5 Z"/></g>
<g><path style="opacity:0.004" fill="#fefffe" d="M 407.5,135.5 C 408.833,136.167 408.833,136.167 407.5,135.5 Z"/></g>
<g><path style="opacity:0.004" fill="#fefffe" d="M 428.5,139.5 C 429.833,140.167 429.833,140.167 428.5,139.5 Z"/></g>
<g><path style="opacity:1" fill="#186d17" d="M 213.5,162.5 C 215.601,156.694 217.268,150.694 218.5,144.5C 217.256,141.949 215.756,139.616 214,137.5C 208.613,140.437 204.446,144.603 201.5,150C 200.306,152.847 200.306,155.68 201.5,158.5C 202.726,159.363 204.06,159.363 205.5,158.5C 205.475,165.508 203.642,166.175 200,160.5C 198.182,156.065 198.516,151.732 201,147.5C 205.07,141.596 210.237,136.929 216.5,133.5C 221.158,143.884 220.158,153.55 213.5,162.5 Z"/></g>
<g><path style="opacity:0.004" fill="#fefffe" d="M 86.5,143.5 C 87.8333,144.167 87.8333,144.167 86.5,143.5 Z"/></g>
<g><path style="opacity:0.004" fill="#fefffe" d="M 404.5,143.5 C 405.833,144.167 405.833,144.167 404.5,143.5 Z"/></g>
<g><path style="opacity:1" fill="#067a05" d="M 213.5,162.5 C 211.143,164.557 208.476,164.89 205.5,163.5C 206.867,161.022 206.867,159.355 205.5,158.5C 204.06,159.363 202.726,159.363 201.5,158.5C 200.306,155.68 200.306,152.847 201.5,150C 204.446,144.603 208.613,140.437 214,137.5C 215.756,139.616 217.256,141.949 218.5,144.5C 217.268,150.694 215.601,156.694 213.5,162.5 Z"/></g>
<g><path style="opacity:0.004" fill="#fefffe" d="M 503.5,145.5 C 504.833,146.167 504.833,146.167 503.5,145.5 Z"/></g>
<g><path style="opacity:0.004" fill="#fefffe" d="M 41.5,147.5 C 42.8333,148.167 42.8333,148.167 41.5,147.5 Z"/></g>
<g><path style="opacity:1" fill="#0b750b" d="M 313.5,134.5 C 324.656,138.491 331.323,146.324 333.5,158C 333.406,161.803 331.74,164.636 328.5,166.5C 327.066,164.78 326.233,162.78 326,160.5C 325.503,162.81 325.337,165.143 325.5,167.5C 319.283,167.462 315.116,164.462 313,158.5C 310.991,150.449 311.158,142.449 313.5,134.5 Z"/></g>
<g><path style="opacity:0.998" fill="#043931" d="M 307.5,142.5 C 311.045,156.814 307.711,169.647 297.5,181C 292.43,184.599 287.096,185.266 281.5,183C 288.575,166.985 287.575,166.485 278.5,181.5C 273.361,174.7 273.194,167.7 278,160.5C 285.956,151.279 295.789,145.279 307.5,142.5 Z"/></g>
<g><path style="opacity:0.979" fill="#043830" d="M 228.5,134.5 C 235.424,133.878 240.591,136.545 244,142.5C 248.744,150.964 250.244,159.964 248.5,169.5C 236.896,166.955 228.063,160.622 222,150.5C 220.759,145.269 221.759,140.602 225,136.5C 226.667,139.167 228.333,141.833 230,144.5C 229.524,141.84 228.69,139.174 227.5,136.5C 227.863,135.817 228.196,135.15 228.5,134.5 Z"/></g>
<g><path style="opacity:0.004" fill="#fefffe" d="M 8.5,155.5 C 9.83333,156.167 9.83333,156.167 8.5,155.5 Z"/></g>
<g><path style="opacity:0.004" fill="#fefffe" d="M 515.5,160.5 C 516.833,161.167 516.833,161.167 515.5,160.5 Z"/></g>
<g><path style="opacity:1" fill="#146714" d="M 359.5,154.5 C 359.162,157.157 359.829,159.49 361.5,161.5C 363.991,159.942 366.657,158.942 369.5,158.5C 366.207,161.398 362.373,163.398 358,164.5C 357.904,160.999 358.404,157.666 359.5,154.5 Z"/></g>
<g><path style="opacity:0.004" fill="#fefffe" d="M 410.5,161.5 C 411.833,162.167 411.833,162.167 410.5,161.5 Z"/></g>
<g><path style="opacity:1" fill="#f88e1a" d="M 228.5,177.5 C 228.5,177.833 228.5,178.167 228.5,178.5C 227.624,178.369 226.957,178.702 226.5,179.5C 227.246,180.736 227.579,182.07 227.5,183.5C 223.882,183.891 221.216,182.724 219.5,180C 221.595,179.444 221.762,178.944 220,178.5C 216.895,179.367 213.728,179.701 210.5,179.5C 210.677,181.981 209.677,183.814 207.5,185C 210.48,187.324 213.813,188.824 217.5,189.5C 217.5,188.167 217.5,186.833 217.5,185.5C 218.833,185.5 220.167,185.5 221.5,185.5C 221.185,188.211 221.852,190.544 223.5,192.5C 206.903,190.64 195.737,181.973 190,166.5C 189.333,163.167 189.333,159.833 190,156.5C 191.388,155.446 192.888,155.28 194.5,156C 197.039,162.761 201.039,168.427 206.5,173C 213.476,176.229 220.809,177.729 228.5,177.5 Z"/></g>
<g><path style="opacity:1" fill="#ec9127" d="M 240.5,172.5 C 236.09,172.139 231.757,171.639 227.5,171C 226.833,171.667 226.167,172.333 225.5,173C 227.056,173.72 228.056,174.887 228.5,176.5C 225.06,174.945 221.727,173.112 218.5,171C 216.549,169.266 215.549,167.099 215.5,164.5C 217.527,164.338 219.527,164.505 221.5,165C 227.746,168.02 234.079,170.52 240.5,172.5 Z"/></g>
<g><path style="opacity:1" fill="#06372f" d="M 354.5,166.5 C 360.281,165.896 365.614,167.062 370.5,170C 373.037,174.346 372.704,178.012 369.5,181C 359.221,181.893 352.554,177.393 349.5,167.5C 351.415,167.784 353.081,167.451 354.5,166.5 Z"/></g>
<g><path style="opacity:0.999" fill="#067805" d="M 198.5,189.5 C 200.147,194.275 200.814,199.275 200.5,204.5C 198.139,204.326 195.806,203.993 193.5,203.5C 189.022,201.892 184.688,199.892 180.5,197.5C 180.167,197.667 179.833,197.833 179.5,198C 185.66,202.58 191.993,206.914 198.5,211C 185.303,218.543 173.803,216.377 164,204.5C 156.162,194.82 150.995,183.82 148.5,171.5C 163.996,169.458 178.329,172.624 191.5,181C 194.447,183.436 196.78,186.269 198.5,189.5 Z"/></g>
<g><path style="opacity:1" fill="#073932" d="M 250.5,165.5 C 259.264,164.397 266.097,167.397 271,174.5C 271.667,176.167 271.667,177.833 271,179.5C 265.783,185.111 260.45,184.444 255,177.5C 252.636,173.781 251.136,169.781 250.5,165.5 Z"/></g>
<g><path style="opacity:1" fill="#eb9128" d="M 337.5,189.5 C 337.67,188.178 337.337,187.011 336.5,186C 337.428,185.612 338.095,184.945 338.5,184C 336.82,180.172 337.32,179.339 340,181.5C 340.498,178.183 340.665,174.85 340.5,171.5C 339.448,171.351 338.448,171.517 337.5,172C 337.108,174.853 335.774,177.02 333.5,178.5C 334.356,175.426 335.69,172.592 337.5,170C 339.367,169.289 340.867,169.789 342,171.5C 342.833,178.152 341.333,184.152 337.5,189.5 Z"/></g>
<g><path style="opacity:1" fill="#fd8d10" d="M 240.5,172.5 C 246.375,175.038 251.041,179.038 254.5,184.5C 252.063,185.65 249.73,186.65 247.5,187.5C 246.353,187.182 245.519,186.516 245,185.5C 244.481,186.516 243.647,187.182 242.5,187.5C 240.313,186.928 237.979,186.928 235.5,187.5C 235.5,188.833 235.5,190.167 235.5,191.5C 231.534,192.162 227.534,192.495 223.5,192.5C 221.852,190.544 221.185,188.211 221.5,185.5C 220.167,185.5 218.833,185.5 217.5,185.5C 217.5,186.833 217.5,188.167 217.5,189.5C 213.813,188.824 210.48,187.324 207.5,185C 209.677,183.814 210.677,181.981 210.5,179.5C 213.728,179.701 216.895,179.367 220,178.5C 221.762,178.944 221.595,179.444 219.5,180C 221.216,182.724 223.882,183.891 227.5,183.5C 227.579,182.07 227.246,180.736 226.5,179.5C 226.957,178.702 227.624,178.369 228.5,178.5C 231.167,178.167 231.167,177.833 228.5,177.5C 228.5,177.167 228.5,176.833 228.5,176.5C 228.056,174.887 227.056,173.72 225.5,173C 226.167,172.333 226.833,171.667 227.5,171C 231.757,171.639 236.09,172.139 240.5,172.5 Z"/></g>
<g><path style="opacity:1" fill="#fb8d15" d="M 337.5,189.5 C 335.046,193.789 331.712,197.289 327.5,200C 316.281,204.638 304.948,208.971 293.5,213C 290.419,215.814 288.753,219.314 288.5,223.5C 287.347,229.319 287.181,235.319 288,241.5C 287.917,245.311 288.75,248.645 290.5,251.5C 291.353,256.47 292.02,261.47 292.5,266.5C 284.236,267.995 275.903,268.995 267.5,269.5C 268.174,246.407 270.008,223.407 273,200.5C 275.281,194.43 279.448,190.263 285.5,188C 295.629,185.094 305.629,181.928 315.5,178.5C 315.683,180.936 315.016,183.103 313.5,185C 309.759,187.732 305.759,190.066 301.5,192C 311.241,192.453 320.241,190.119 328.5,185C 330.066,182.674 331.732,180.508 333.5,178.5C 335.774,177.02 337.108,174.853 337.5,172C 338.448,171.517 339.448,171.351 340.5,171.5C 340.665,174.85 340.498,178.183 340,181.5C 337.32,179.339 336.82,180.172 338.5,184C 338.095,184.945 337.428,185.612 336.5,186C 337.337,187.011 337.67,188.178 337.5,189.5 Z"/></g>
<g><path style="opacity:1" fill="#087706" d="M 342.5,212.5 C 338.268,214.114 333.934,215.447 329.5,216.5C 327.995,207.354 330.995,200.187 338.5,195C 349.237,188.566 360.904,185.733 373.5,186.5C 371.297,199.742 365.297,210.908 355.5,220C 348.839,224.907 341.839,225.573 334.5,222C 333.833,221.333 333.167,220.667 332.5,220C 336.08,217.723 339.414,215.223 342.5,212.5 Z M 345.5,210.5 C 345.027,211.906 344.027,212.573 342.5,212.5C 342.973,211.094 343.973,210.427 345.5,210.5 Z"/></g>
<g><path style="opacity:1" fill="#fc8d13" d="M 240.5,172.5 C 247.484,173.408 252.984,176.741 257,182.5C 259.066,190.026 260.4,197.693 261,205.5C 261.629,215.907 262.462,226.241 263.5,236.5C 262.835,239.817 262.501,243.317 262.5,247C 262.358,252.743 263.025,258.243 264.5,263.5C 264.5,265.5 264.5,267.5 264.5,269.5C 254.875,269.342 245.541,267.842 236.5,265C 237.304,261.883 237.97,258.716 238.5,255.5C 240.09,253.525 241.257,251.192 242,248.5C 242.5,241.174 242.666,233.841 242.5,226.5C 242.5,225.5 242.5,224.5 242.5,223.5C 245.3,215.836 244.966,208.169 241.5,200.5C 241.043,199.702 240.376,199.369 239.5,199.5C 234.324,196.776 228.99,194.442 223.5,192.5C 227.534,192.495 231.534,192.162 235.5,191.5C 235.5,190.167 235.5,188.833 235.5,187.5C 237.979,186.928 240.313,186.928 242.5,187.5C 243.647,187.182 244.481,186.516 245,185.5C 245.519,186.516 246.353,187.182 247.5,187.5C 249.73,186.65 252.063,185.65 254.5,184.5C 251.041,179.038 246.375,175.038 240.5,172.5 Z"/></g>
<g><path style="opacity:0.004" fill="#fefffe" d="M 458.5,193.5 C 459.833,194.167 459.833,194.167 458.5,193.5 Z"/></g>
<g><path style="opacity:0.004" fill="#fefffe" d="M 86.5,195.5 C 87.8333,196.167 87.8333,196.167 86.5,195.5 Z"/></g>
<g><path style="opacity:1" fill="#186918" d="M 198.5,189.5 C 199.79,190.058 200.623,191.058 201,192.5C 201.436,194.847 201.936,197.181 202.5,199.5C 201.777,201.782 201.443,204.116 201.5,206.5C 198.458,206.267 195.792,205.267 193.5,203.5C 195.806,203.993 198.139,204.326 200.5,204.5C 200.814,199.275 200.147,194.275 198.5,189.5 Z"/></g>
<g><path style="opacity:0.004" fill="#fefffe" d="M 128.5,201.5 C 129.833,202.167 129.833,202.167 128.5,201.5 Z"/></g>
<g><path style="opacity:0.871" fill="#e68f30" d="M 239.5,199.5 C 240.376,199.369 241.043,199.702 241.5,200.5C 244.966,208.169 245.3,215.836 242.5,223.5C 244.115,215.145 243.115,207.145 239.5,199.5 Z"/></g>
<g><path style="opacity:0.004" fill="#fefffe" d="M 443.5,204.5 C 444.833,205.167 444.833,205.167 443.5,204.5 Z"/></g>
<g><path style="opacity:1" fill="#083830" d="M 216.5,198.5 C 221.93,198.161 227.264,198.661 232.5,200C 238.136,204.143 238.47,208.477 233.5,213C 224.399,213.594 218.066,209.594 214.5,201C 215.056,199.989 215.722,199.156 216.5,198.5 Z"/></g>
<g><path style="opacity:0.004" fill="#fefffe" d="M 20.5,208.5 C 21.8333,209.167 21.8333,209.167 20.5,208.5 Z"/></g>
<g><path style="opacity:0.004" fill="#fefffe" d="M 461.5,210.5 C 462.833,211.167 462.833,211.167 461.5,210.5 Z"/></g>
<g><path style="opacity:0.004" fill="#fefffe" d="M 164.5,214.5 C 165.833,215.167 165.833,215.167 164.5,214.5 Z"/></g>
<g><path style="opacity:1" fill="#166d17" d="M 228.5,225.5 C 228.318,223.409 228.652,221.409 229.5,219.5C 222.532,218.503 215.532,218.17 208.5,218.5C 209.263,217.732 210.263,217.232 211.5,217C 218.158,216.5 224.825,216.334 231.5,216.5C 231.472,219.916 230.472,222.916 228.5,225.5 Z"/></g>
<g><path style="opacity:1" fill="#087707" d="M 208.5,218.5 C 215.532,218.17 222.532,218.503 229.5,219.5C 228.652,221.409 228.318,223.409 228.5,225.5C 223.909,237.091 215.576,244.424 203.5,247.5C 199.576,247.25 196.242,245.75 193.5,243C 204.216,233.032 203.549,232.032 191.5,240C 189.306,232.248 191.64,226.248 198.5,222C 201.561,219.965 204.895,218.799 208.5,218.5 Z"/></g>
<g><path style="opacity:0.004" fill="#fefffe" d="M 485.5,219.5 C 486.833,220.167 486.833,220.167 485.5,219.5 Z"/></g>
<g><path style="opacity:0.004" fill="#fefffe" d="M 425.5,220.5 C 426.833,221.167 426.833,221.167 425.5,220.5 Z"/></g>
<g><path style="opacity:0.004" fill="#fefffe" d="M 89.5,224.5 C 90.8333,225.167 90.8333,225.167 89.5,224.5 Z"/></g>
<g><path style="opacity:1" fill="#043831" d="M 304.5,218.5 C 311.987,218.058 319.32,218.892 326.5,221C 334.969,224.106 337.969,229.94 335.5,238.5C 333.177,236.935 330.844,235.768 328.5,235C 330.684,237.016 332.684,239.183 334.5,241.5C 332.014,243.879 329.014,245.212 325.5,245.5C 311.818,241.818 303.152,233.152 299.5,219.5C 301.415,219.784 303.081,219.451 304.5,218.5 Z"/></g>
<g><path style="opacity:0.004" fill="#fefffe" d="M 383.5,233.5 C 384.833,234.167 384.833,234.167 383.5,233.5 Z"/></g>
<g><path style="opacity:0.98" fill="#093930" d="M 229.5,233.5 C 237.322,233.166 240.156,236.833 238,244.5C 234.88,250.472 230.046,254.138 223.5,255.5C 223.656,252.934 223.322,250.434 222.5,248C 222.611,241.947 224.945,237.114 229.5,233.5 Z"/></g>
<g><path style="opacity:1" fill="#ea902a" d="M 242.5,226.5 C 242.666,233.841 242.5,241.174 242,248.5C 241.257,251.192 240.09,253.525 238.5,255.5C 239.553,245.659 240.886,235.993 242.5,226.5 Z"/></g>
<g><path style="opacity:0.004" fill="#fefffe" d="M 392.5,246.5 C 393.833,247.167 393.833,247.167 392.5,246.5 Z"/></g>
<g><path style="opacity:1" fill="#e68f30" d="M 288.5,223.5 C 288.866,232.857 289.533,242.19 290.5,251.5C 288.75,248.645 287.917,245.311 288,241.5C 287.181,235.319 287.347,229.319 288.5,223.5 Z"/></g>
<g><path style="opacity:0.969" fill="#083932" d="M 297.5,234.5 C 301.192,233.971 304.358,234.971 307,237.5C 315.791,256.715 312.124,260.048 296,247.5C 292.314,242.483 292.814,238.15 297.5,234.5 Z"/></g>
<g><path style="opacity:0.004" fill="#fefffe" d="M 491.5,250.5 C 492.833,251.167 492.833,251.167 491.5,250.5 Z"/></g>
<g><path style="opacity:1" fill="#e69031" d="M 263.5,236.5 C 263.7,245.506 264.034,254.506 264.5,263.5C 263.025,258.243 262.358,252.743 262.5,247C 262.501,243.317 262.835,239.817 263.5,236.5 Z"/></g>
<g><path style="opacity:0.004" fill="#fefffe" d="M 410.5,259.5 C 411.833,260.167 411.833,260.167 410.5,259.5 Z"/></g>
<g><path style="opacity:0.004" fill="#fefffe" d="M 170.5,260.5 C 171.833,261.167 171.833,261.167 170.5,260.5 Z"/></g>
<g><path style="opacity:0.004" fill="#fefffe" d="M 209.5,263.5 C 210.833,264.167 210.833,264.167 209.5,263.5 Z"/></g>
<g><path style="opacity:0.004" fill="#fefffe" d="M 284.5,272.5 C 285.833,273.167 285.833,273.167 284.5,272.5 Z"/></g>
<g><path style="opacity:0.004" fill="#fefffe" d="M 407.5,279.5 C 408.833,280.167 408.833,280.167 407.5,279.5 Z"/></g>
<g><path style="opacity:0.004" fill="#fefffe" d="M 446.5,293.5 C 447.833,294.167 447.833,294.167 446.5,293.5 Z"/></g>
<g><path style="opacity:0.004" fill="#fefffe" d="M 485.5,301.5 C 486.833,302.167 486.833,302.167 485.5,301.5 Z"/></g>
<g><path style="opacity:0.004" fill="#fefffe" d="M 407.5,304.5 C 408.833,305.167 408.833,305.167 407.5,304.5 Z"/></g>
<g><path style="opacity:0.004" fill="#fefffe" d="M 152.5,312.5 C 153.833,313.167 153.833,313.167 152.5,312.5 Z"/></g>
<g><path style="opacity:1" fill="#033831" d="M 455.5,310.5 C 459.514,310.334 463.514,310.501 467.5,311C 468.333,311.833 469.167,312.667 470,313.5C 480.683,339.653 491.85,365.153 503.5,390C 497.167,390.667 490.833,390.667 484.5,390C 483.483,388.951 483.316,387.784 484,386.5C 485.167,385.333 486.333,384.167 487.5,383C 485.538,378.907 483.704,374.741 482,370.5C 470.243,369.346 458.409,369.179 446.5,370C 444.446,374.16 442.779,378.493 441.5,383C 443.243,385.019 444.41,387.186 445,389.5C 439.928,390.471 434.762,390.805 429.5,390.5C 429.343,389.127 429.51,387.793 430,386.5C 432.043,384.792 433.71,382.792 435,380.5C 443.028,359.611 451.195,338.777 459.5,318C 457.477,315.825 456.143,313.325 455.5,310.5 Z M 463.5,325.5 C 468.91,337.875 474.243,350.375 479.5,363C 469.506,363.5 459.506,363.666 449.5,363.5C 453.574,350.609 458.241,337.943 463.5,325.5 Z"/></g>
<g><path style="opacity:1" fill="#033830" d="M 25.5,310.5 C 32.1667,310.5 38.8333,310.5 45.5,310.5C 45.4312,313.084 44.2645,315.084 42,316.5C 41.3333,333.5 41.3333,350.5 42,367.5C 48.527,385.006 60.027,389.506 76.5,381C 81.2854,376.931 84.1188,371.764 85,365.5C 85.6667,349.167 85.6667,332.833 85,316.5C 82.7355,315.084 81.5688,313.084 81.5,310.5C 86.5,310.5 91.5,310.5 96.5,310.5C 96.4312,313.084 95.2645,315.084 93,316.5C 92.6667,332.167 92.3333,347.833 92,363.5C 88.7523,384.406 76.5857,393.573 55.5,391C 40.107,388.272 31.607,379.106 30,363.5C 29.6667,347.833 29.3333,332.167 29,316.5C 26.7355,315.084 25.5688,313.084 25.5,310.5 Z"/></g>
<g><path style="opacity:1" fill="#033831" d="M 215.5,310.5 C 222.5,310.5 229.5,310.5 236.5,310.5C 236.649,311.552 236.483,312.552 236,313.5C 233.372,314.756 232.372,316.756 233,319.5C 241.076,338.648 249.409,357.648 258,376.5C 265.933,356.868 273.766,337.201 281.5,317.5C 280.722,315.853 279.556,314.52 278,313.5C 277.517,312.552 277.351,311.552 277.5,310.5C 282.833,310.5 288.167,310.5 293.5,310.5C 281.714,335.62 270.547,361.287 260,387.5C 257,391.5 254,391.5 251,387.5C 239.365,361.284 227.532,335.617 215.5,310.5 Z"/></g>
<g><path style="opacity:1" fill="#043730" d="M 103.5,310.5 C 116.552,310.099 129.552,310.599 142.5,312C 158.908,317.304 165.075,328.471 161,345.5C 156.673,355.803 148.839,361.636 137.5,363C 131.175,363.5 124.842,363.666 118.5,363.5C 118.334,370.508 118.5,377.508 119,384.5C 120.983,385.766 121.983,387.432 122,389.5C 115.916,390.642 109.749,390.809 103.5,390C 102.689,387.709 103.523,385.875 106,384.5C 106.667,361.833 106.667,339.167 106,316.5C 103.272,315.033 102.439,313.033 103.5,310.5 Z M 119.5,315.5 C 130.436,314.199 139.603,317.532 147,325.5C 151.615,333.861 151.615,342.194 147,350.5C 143.889,353.944 140.056,356.111 135.5,357C 129.916,357.806 124.416,357.639 119,356.5C 118.186,342.758 118.353,329.092 119.5,315.5 Z"/></g>
<g><path style="opacity:0.004" fill="#fefffe" d="M 257.5,314.5 C 258.833,315.167 258.833,315.167 257.5,314.5 Z"/></g>
<g><path style="opacity:0.004" fill="#fefffe" d="M 500.5,322.5 C 501.833,323.167 501.833,323.167 500.5,322.5 Z"/></g>
<g><path style="opacity:0.004" fill="#fefffe" d="M 305.5,324.5 C 306.833,325.167 306.833,325.167 305.5,324.5 Z"/></g>
<g><path style="opacity:0.004" fill="#fefffe" d="M 176.5,331.5 C 177.833,332.167 177.833,332.167 176.5,331.5 Z"/></g>
<g><path style="opacity:0.004" fill="#fefffe" d="M 14.5,353.5 C 15.8333,354.167 15.8333,354.167 14.5,353.5 Z"/></g>
<g><path style="opacity:0.004" fill="#fefffe" d="M 509.5,363.5 C 510.833,364.167 510.833,364.167 509.5,363.5 Z"/></g>
<g><path style="opacity:0.996" fill="#043831" d="M 306.5,310.5 C 310.514,310.334 314.514,310.501 318.5,311C 329.919,334.346 340.419,358.18 350,382.5C 352.018,384.35 353.851,386.35 355.5,388.5C 355.291,389.086 354.957,389.586 354.5,390C 347.842,390.5 341.175,390.666 334.5,390.5C 334.269,387.215 335.603,384.715 338.5,383C 336.538,378.907 334.704,374.741 333,370.5C 321.243,369.346 309.409,369.179 297.5,370C 295.446,374.16 293.779,378.493 292.5,383C 294.243,385.019 295.41,387.186 296,389.5C 290.928,390.471 285.762,390.805 280.5,390.5C 280.446,387.033 281.946,384.366 285,382.5C 293.5,360.833 302,339.167 310.5,317.5C 308.266,315.619 306.933,313.285 306.5,310.5 Z M 313.5,325.5 C 314.497,325.47 315.164,325.97 315.5,327C 320.233,339.13 325.233,351.13 330.5,363C 320.167,363.667 309.833,363.667 299.5,363C 304.86,350.752 309.527,338.252 313.5,325.5 Z"/></g>
<g><path style="opacity:0.995" fill="#033831" d="M 356.5,310.5 C 361.179,310.334 365.845,310.501 370.5,311C 386.367,331.9 401.867,353.067 417,374.5C 417.667,355.5 417.667,336.5 417,317.5C 414.418,315.772 412.918,313.439 412.5,310.5C 417.833,310.5 423.167,310.5 428.5,310.5C 428.082,313.439 426.582,315.772 424,317.5C 423.667,341.5 423.333,365.5 423,389.5C 419.961,390.966 417.128,390.633 414.5,388.5C 399.193,367.359 383.693,346.359 368,325.5C 367.333,344.833 367.333,364.167 368,383.5C 370.948,385.043 371.782,387.21 370.5,390C 365.845,390.499 361.179,390.666 356.5,390.5C 356.343,389.127 356.51,387.793 357,386.5C 358.385,385.449 359.385,384.116 360,382.5C 360.667,360.833 360.667,339.167 360,317.5C 357.298,315.957 356.132,313.624 356.5,310.5 Z"/></g>
<g><path style="opacity:0.004" fill="#fefffe" d="M 377.5,357.5 C 378.833,358.167 378.833,358.167 377.5,357.5 Z"/></g>
<g><path style="opacity:0.004" fill="#fefffe" d="M 410.5,356.5 C 411.833,357.167 411.833,357.167 410.5,356.5 Z"/></g>
<g><path style="opacity:0.004" fill="#fefffe" d="M 371.5,349.5 C 372.833,350.167 372.833,350.167 371.5,349.5 Z"/></g>
<g><path style="opacity:0.004" fill="#fefffe" d="M 401.5,311.5 C 402.833,312.167 402.833,312.167 401.5,311.5 Z"/></g>
<g><path style="opacity:1" fill="#043831" d="M 180.5,310.5 C 185.099,310.2 189.599,310.533 194,311.5C 203.861,334.085 213.528,356.751 223,379.5C 224.425,382.922 226.592,385.755 229.5,388C 229.355,388.772 229.022,389.439 228.5,390C 222.167,390.667 215.833,390.667 209.5,390C 208.483,388.951 208.316,387.784 209,386.5C 210.757,385.881 211.924,384.714 212.5,383C 210.331,378.657 208.664,374.157 207.5,369.5C 195.482,369.168 183.482,369.501 171.5,370.5C 169.735,374.627 168.069,378.793 166.5,383C 167.464,384.964 168.797,386.63 170.5,388C 170.333,388.5 170.167,389 170,389.5C 165,390.833 160,390.833 155,389.5C 154.583,386.716 155.75,384.716 158.5,383.5C 167.582,361.835 176.249,340.002 184.5,318C 182.522,315.853 181.189,313.353 180.5,310.5 Z M 188.5,325.5 C 192.716,335.291 197.05,345.124 201.5,355C 201.167,355.333 200.833,355.667 200.5,356C 202.209,357.916 203.543,360.082 204.5,362.5C 194.522,363.499 184.522,363.832 174.5,363.5C 178.968,350.763 183.635,338.097 188.5,325.5 Z"/></g>
<g><path style="opacity:0.004" fill="#fefffe" d="M 203.5,374.5 C 204.833,375.167 204.833,375.167 203.5,374.5 Z"/></g>
<g><path style="opacity:0.004" fill="#fefffe" d="M 134.5,389.5 C 135.833,390.167 135.833,390.167 134.5,389.5 Z"/></g>
<g><path style="opacity:0.004" fill="#fefffe" d="M 128.5,391.5 C 129.833,392.167 129.833,392.167 128.5,391.5 Z"/></g>
<g><path style="opacity:0.004" fill="#fefffe" d="M 374.5,395.5 C 375.833,396.167 375.833,396.167 374.5,395.5 Z"/></g>
<g><path style="opacity:0.004" fill="#fefffe" d="M 152.5,396.5 C 153.833,397.167 153.833,397.167 152.5,396.5 Z"/></g>
<g><path style="opacity:0.004" fill="#fefffe" d="M 257.5,403.5 C 258.833,404.167 258.833,404.167 257.5,403.5 Z"/></g>
<g><path style="opacity:0.004" fill="#fefffe" d="M 362.5,412.5 C 363.833,413.167 363.833,413.167 362.5,412.5 Z"/></g>
<g><path style="opacity:0.004" fill="#fefffe" d="M 434.5,413.5 C 435.833,414.167 435.833,414.167 434.5,413.5 Z"/></g>
<g><path style="opacity:0.004" fill="#fefffe" d="M 212.5,417.5 C 213.833,418.167 213.833,418.167 212.5,417.5 Z"/></g>
<g><path style="opacity:0.004" fill="#fefffe" d="M 86.5,423.5 C 87.8333,424.167 87.8333,424.167 86.5,423.5 Z"/></g>
<g><path style="opacity:0.988" fill="#052f29" d="M 220.5,421.5 C 221.496,421.414 222.329,421.748 223,422.5C 223.667,425.167 223.667,427.833 223,430.5C 222,431.833 221,431.833 220,430.5C 219.264,427.408 219.431,424.408 220.5,421.5 Z"/></g>
<g><path style="opacity:0.989" fill="#04342e" d="M 318.5,422.5 C 320.833,422.5 323.167,422.5 325.5,422.5C 326.693,426.911 328.193,431.244 330,435.5C 331.667,431.5 333.333,427.5 335,423.5C 337.381,422.565 339.881,422.232 342.5,422.5C 342.5,429.833 342.5,437.167 342.5,444.5C 340.833,444.5 339.167,444.5 337.5,444.5C 337.666,440.154 337.499,435.821 337,431.5C 335.333,435.5 333.667,439.5 332,443.5C 331.439,444.022 330.772,444.355 330,444.5C 327.252,440.952 325.252,436.952 324,432.5C 323.501,436.486 323.334,440.486 323.5,444.5C 321.833,444.5 320.167,444.5 318.5,444.5C 318.5,437.167 318.5,429.833 318.5,422.5 Z"/></g>
<g><path style="opacity:0.141" fill="#06342d" d="M 288.5,422.5 C 293.833,422.5 299.167,422.5 304.5,422.5C 304.5,423.833 304.5,425.167 304.5,426.5C 300.833,426.5 297.167,426.5 293.5,426.5C 293.5,427.833 293.5,429.167 293.5,430.5C 296.85,430.335 300.183,430.502 303.5,431C 304.38,432.356 304.714,433.856 304.5,435.5C 300.833,435.5 297.167,435.5 293.5,435.5C 293.5,437.167 293.5,438.833 293.5,440.5C 297.167,440.5 300.833,440.5 304.5,440.5C 304.5,441.833 304.5,443.167 304.5,444.5C 299.167,444.5 293.833,444.5 288.5,444.5C 288.5,437.167 288.5,429.833 288.5,422.5 Z"/></g>
<g><path style="opacity:0.004" fill="#fefffe" d="M 446.5,427.5 C 447.833,428.167 447.833,428.167 446.5,427.5 Z"/></g>
<g><path style="opacity:0.82" fill="#04362e" d="M 27.5,422.5 C 29.1992,422.34 30.8659,422.506 32.5,423C 35.788,427.077 38.9547,431.244 42,435.5C 42.499,431.179 42.6657,426.846 42.5,422.5C 44.1667,422.5 45.8333,422.5 47.5,422.5C 47.5,429.833 47.5,437.167 47.5,444.5C 45.396,444.799 43.396,444.466 41.5,443.5C 38.4724,439.639 35.6391,435.639 33,431.5C 32.501,435.821 32.3343,440.154 32.5,444.5C 30.8333,444.5 29.1667,444.5 27.5,444.5C 27.5,437.167 27.5,429.833 27.5,422.5 Z"/></g>
<g><path style="opacity:1" fill="#07352f" d="M 486.5,422.5 C 491.833,422.5 497.167,422.5 502.5,422.5C 502.5,423.833 502.5,425.167 502.5,426.5C 498.833,426.5 495.167,426.5 491.5,426.5C 491.5,427.833 491.5,429.167 491.5,430.5C 495.167,430.5 498.833,430.5 502.5,430.5C 502.5,432.167 502.5,433.833 502.5,435.5C 498.833,435.5 495.167,435.5 491.5,435.5C 491.5,437.167 491.5,438.833 491.5,440.5C 495.167,440.5 498.833,440.5 502.5,440.5C 502.5,441.833 502.5,443.167 502.5,444.5C 497.167,444.5 491.833,444.5 486.5,444.5C 486.5,437.167 486.5,429.833 486.5,422.5 Z"/></g>
<g><path style="opacity:1" fill="#05332d" d="M 389.5,422.5 C 394.179,422.334 398.845,422.501 403.5,423C 408.951,427.927 408.618,432.593 402.5,437C 404.167,439.333 405.833,441.667 407.5,444C 405.5,444.667 403.5,444.667 401.5,444C 400.275,440.28 397.941,437.78 394.5,436.5C 394.5,439.167 394.5,441.833 394.5,444.5C 392.833,444.5 391.167,444.5 389.5,444.5C 389.5,437.167 389.5,429.833 389.5,422.5 Z M 394.5,426.5 C 396.527,426.338 398.527,426.505 400.5,427C 401.833,428.667 401.833,430.333 400.5,432C 398.527,432.495 396.527,432.662 394.5,432.5C 394.5,430.5 394.5,428.5 394.5,426.5 Z"/></g>
<g><path style="opacity:1" fill="#04362e" d="M 427.5,422.5 C 431.158,421.872 433.658,423.206 435,426.5C 437.167,432.167 439.333,437.833 441.5,443.5C 437.857,445.395 435.857,444.395 435.5,440.5C 432.102,440.18 428.768,440.513 425.5,441.5C 423.927,444.193 421.593,445.026 418.5,444C 421.601,436.862 424.601,429.695 427.5,422.5 Z M 429.5,428.5 C 431.19,430.504 432.524,432.837 433.5,435.5C 431.604,436.466 429.604,436.799 427.5,436.5C 428.167,433.833 428.833,431.167 429.5,428.5 Z"/></g>
<g><path style="opacity:1" fill="#04342e" d="M 158.5,422.5 C 163.179,422.334 167.845,422.501 172.5,423C 175.394,425.909 176.227,429.409 175,433.5C 173.926,434.618 172.76,435.618 171.5,436.5C 172.833,438.833 174.167,441.167 175.5,443.5C 173.926,444.631 172.259,444.798 170.5,444C 168.833,441.667 167.167,439.333 165.5,437C 164.552,436.517 163.552,436.351 162.5,436.5C 162.5,439.167 162.5,441.833 162.5,444.5C 161.167,444.5 159.833,444.5 158.5,444.5C 158.5,437.167 158.5,429.833 158.5,422.5 Z M 162.5,426.5 C 164.857,426.337 167.19,426.503 169.5,427C 170.833,428.667 170.833,430.333 169.5,432C 167.19,432.497 164.857,432.663 162.5,432.5C 162.5,430.5 162.5,428.5 162.5,426.5 Z"/></g>
<g><path style="opacity:0.996" fill="#05352e" d="M 68.5,422.5 C 72.1581,421.872 74.6581,423.206 76,426.5C 78.1667,432.167 80.3333,437.833 82.5,443.5C 78.8573,445.395 76.8573,444.395 76.5,440.5C 73.1016,440.18 69.7683,440.513 66.5,441.5C 64.9268,444.193 62.5934,445.026 59.5,444C 62.6006,436.862 65.6006,429.695 68.5,422.5 Z M 70.5,428.5 C 72.2889,430.651 73.6222,433.151 74.5,436C 72.5273,436.495 70.5273,436.662 68.5,436.5C 69.1667,433.833 69.8333,431.167 70.5,428.5 Z"/></g>
<g><path style="opacity:0.792" fill="#04362d" d="M 91.5,422.5 C 97.5,422.5 103.5,422.5 109.5,422.5C 109.5,423.833 109.5,425.167 109.5,426.5C 107.5,426.5 105.5,426.5 103.5,426.5C 103.5,432.5 103.5,438.5 103.5,444.5C 101.833,444.5 100.167,444.5 98.5,444.5C 98.5,438.5 98.5,432.5 98.5,426.5C 96.1667,426.5 93.8333,426.5 91.5,426.5C 91.5,425.167 91.5,423.833 91.5,422.5 Z"/></g>
<g><path style="opacity:0.998" fill="#05352d" d="M 356.5,422.5 C 361.844,422.334 367.177,422.501 372.5,423C 375.167,426.333 375.167,429.667 372.5,433C 376.5,436.667 376.5,440.333 372.5,444C 367.177,444.499 361.844,444.666 356.5,444.5C 356.5,437.167 356.5,429.833 356.5,422.5 Z M 361.5,435.5 C 364.187,435.336 366.854,435.503 369.5,436C 370.833,437.333 370.833,438.667 369.5,440C 366.854,440.497 364.187,440.664 361.5,440.5C 361.5,438.833 361.5,437.167 361.5,435.5 Z M 361.5,426.5 C 364.167,426.5 366.833,426.5 369.5,426.5C 369.5,427.833 369.5,429.167 369.5,430.5C 366.833,430.5 364.167,430.5 361.5,430.5C 361.5,429.167 361.5,427.833 361.5,426.5 Z"/></g>
<g><path style="opacity:1" fill="#05362d" d="M 189.5,422.5 C 194.833,422.5 200.167,422.5 205.5,422.5C 205.5,423.833 205.5,425.167 205.5,426.5C 201.833,426.5 198.167,426.5 194.5,426.5C 194.5,427.833 194.5,429.167 194.5,430.5C 198.167,430.5 201.833,430.5 205.5,430.5C 205.5,432.167 205.5,433.833 205.5,435.5C 201.833,435.5 198.167,435.5 194.5,435.5C 194.5,437.167 194.5,438.833 194.5,440.5C 198.167,440.5 201.833,440.5 205.5,440.5C 205.5,441.833 205.5,443.167 205.5,444.5C 200.167,444.5 194.833,444.5 189.5,444.5C 189.5,437.167 189.5,429.833 189.5,422.5 Z"/></g>
<g><path style="opacity:0.004" fill="#fefffe" d="M 482.5,440.5 C 483.833,441.167 483.833,441.167 482.5,440.5 Z"/></g>
<g><path style="opacity:1" fill="#06332c" d="M 242.5,421.5 C 244.857,421.337 247.19,421.503 249.5,422C 254.857,423.158 255.523,425.324 251.5,428.5C 248.383,425.91 245.383,425.91 242.5,428.5C 246.65,429.835 250.483,431.835 254,434.5C 255.399,443.266 251.566,446.766 242.5,445C 236.487,444.383 235.32,441.883 239,437.5C 242.809,441.101 246.642,441.268 250.5,438C 246.892,436.348 243.226,434.848 239.5,433.5C 236.238,428.397 237.238,424.397 242.5,421.5 Z"/></g>
<g><path style="opacity:1" fill="#05342d" d="M 460.5,421.5 C 466.078,420.627 470.411,422.461 473.5,427C 472.421,427.956 471.255,428.789 470,429.5C 461.333,423.833 457.333,426.167 458,436.5C 461.436,441.509 465.436,441.843 470,437.5C 473.817,438.604 474.317,440.437 471.5,443C 457.777,447.95 451.61,443.117 453,428.5C 454.767,425.228 457.267,422.895 460.5,421.5 Z"/></g>
<g><path style="opacity:0.976" fill="#07342e" d="M 123.5,422.5 C 125.167,422.5 126.833,422.5 128.5,422.5C 128.334,427.844 128.501,433.177 129,438.5C 132.472,441.418 135.472,441.085 138,437.5C 138.499,432.511 138.666,427.511 138.5,422.5C 140.167,422.5 141.833,422.5 143.5,422.5C 143.87,428.925 143.37,435.258 142,441.5C 135.629,447.111 129.629,446.778 124,440.5C 123.501,434.509 123.334,428.509 123.5,422.5 Z"/></g>
<g><path style="opacity:0.004" fill="#fefffe" d="M 527.5,445.5 C 528.833,446.167 528.833,446.167 527.5,445.5 Z"/></g>
<g><path style="opacity:0.004" fill="#fefffe" d="M 263.5,446.5 C 264.833,447.167 264.833,447.167 263.5,446.5 Z"/></g>
<g><path style="opacity:0.004" fill="#fefffe" d="M 299.5,449.5 C 300.833,450.167 300.833,450.167 299.5,449.5 Z"/></g>
<g><path style="opacity:0.004" fill="#fefffe" d="M 257.5,451.5 C 258.833,452.167 258.833,452.167 257.5,451.5 Z"/></g>
<g><path style="opacity:0.004" fill="#fefffe" d="M 455.5,451.5 C 456.833,452.167 456.833,452.167 455.5,451.5 Z"/></g>
<g><path style="opacity:0.004" fill="#fefffe" d="M 89.5,454.5 C 90.8333,455.167 90.8333,455.167 89.5,454.5 Z"/></g>
<g><path style="opacity:0.004" fill="#fefffe" d="M 131.5,457.5 C 132.833,458.167 132.833,458.167 131.5,457.5 Z"/></g>
</svg>
